{
    "asset" : {
        "generator" : "Khronos glTF Blender I/O v3.3.32",
        "version" : "2.0"
    },
    "scene" : 0,
    "scenes" : [
        {
            "name" : "Scene",
            "nodes" : [
                0,
                1
            ]
        }
    ],
    "nodes" : [
        {
            "mesh" : 0,
            "name" : "Map",
            "translation" : [
                0,
                0.04667377844452858,
                0
            ]
        },
        {
            "mesh" : 1,
            "name" : "Text",
            "rotation" : [
                0.6339390873908997,
                0.3132430613040924,
                -0.3132430613040924,
                0.6339390873908997
            ],
            "translation" : [
                -8.820990562438965,
                6.468087673187256,
                -5.547981262207031
            ]
        }
    ],
    "materials" : [
        {
            "doubleSided" : true,
            "name" : "Material.004",
            "pbrMetallicRoughness" : {
                "baseColorTexture" : {
                    "index" : 0
                },
                "metallicFactor" : 0,
                "roughnessFactor" : 0.5
            }
        }
    ],
    "meshes" : [
        {
            "name" : "Plane.004",
            "primitives" : [
                {
                    "attributes" : {
                        "POSITION" : 0,
                        "NORMAL" : 1,
                        "TEXCOORD_0" : 2
                    },
                    "indices" : 3,
                    "material" : 0
                }
            ]
        },
        {
            "name" : "ZOOMLAND",
            "primitives" : [
                {
                    "attributes" : {
                        "POSITION" : 4,
                        "NORMAL" : 5,
                        "TEXCOORD_0" : 6
                    },
                    "indices" : 7
                }
            ]
        }
    ],
    "textures" : [
        {
            "sampler" : 0,
            "source" : 0
        }
    ],
    "images" : [
        {
            "bufferView" : 4,
            "mimeType" : "image/png",
            "name" : "Untitled"
        }
    ],
    "accessors" : [
        {
            "bufferView" : 0,
            "componentType" : 5126,
            "count" : 31065,
            "max" : [
                9.623041152954102,
                8.93310546875,
                9.002836227416992
            ],
            "min" : [
                -12.924715042114258,
                -0.5134916305541992,
                -11.431561470031738
            ],
            "type" : "VEC3"
        },
        {
            "bufferView" : 1,
            "componentType" : 5126,
            "count" : 31065,
            "type" : "VEC3"
        },
        {
            "bufferView" : 2,
            "componentType" : 5126,
            "count" : 31065,
            "type" : "VEC2"
        },
        {
            "bufferView" : 3,
            "componentType" : 5123,
            "count" : 34815,
            "type" : "SCALAR"
        },
        {
            "bufferView" : 5,
            "componentType" : 5126,
            "count" : 928,
            "max" : [
                4.966548919677734,
                0.6288985013961792,
                0.9700961709022522
            ],
            "min" : [
                0.020941734313964844,
                -0.8108938932418823,
                -0.5803351402282715
            ],
            "type" : "VEC3"
        },
        {
            "bufferView" : 6,
            "componentType" : 5126,
            "count" : 928,
            "type" : "VEC3"
        },
        {
            "bufferView" : 7,
            "componentType" : 5126,
            "count" : 928,
            "type" : "VEC2"
        },
        {
            "bufferView" : 8,
            "componentType" : 5123,
            "count" : 1050,
            "type" : "SCALAR"
        }
    ],
    "bufferViews" : [
        {
            "buffer" : 0,
            "byteLength" : 372780,
            "byteOffset" : 0,
            "target" : 34962
        },
        {
            "buffer" : 0,
            "byteLength" : 372780,
            "byteOffset" : 372780,
            "target" : 34962
        },
        {
            "buffer" : 0,
            "byteLength" : 248520,
            "byteOffset" : 745560,
            "target" : 34962
        },
        {
            "buffer" : 0,
            "byteLength" : 69630,
            "byteOffset" : 994080,
            "target" : 34963
        },
        {
            "buffer" : 0,
            "byteLength" : 15802,
            "byteOffset" : 1063712
        },
        {
            "buffer" : 0,
            "byteLength" : 11136,
            "byteOffset" : 1079516,
            "target" : 34962
        },
        {
            "buffer" : 0,
            "byteLength" : 11136,
            "byteOffset" : 1090652,
            "target" : 34962
        },
        {
            "buffer" : 0,
            "byteLength" : 7424,
            "byteOffset" : 1101788,
            "target" : 34962
        },
        {
            "buffer" : 0,
            "byteLength" : 2100,
            "byteOffset" : 1109212,
            "target" : 34963
        }
    ],
    "samplers" : [
        {
            "magFilter" : 9729,
            "minFilter" : 9987
        }
    ],
    "buffers" : [
        {
            "byteLength" : 1111312,
            "uri" : "data:application/octet-stream;base64,"
        }
    ]
}
