{
    "asset" : {
        "generator" : "Khronos glTF Blender I/O v3.3.32",
        "version" : "2.0"
    },
    "scene" : 0,
    "scenes" : [
        {
            "name" : "Scene",
            "nodes" : [
                0
            ]
        }
    ],
    "nodes" : [
        {
            "mesh" : 0,
            "name" : "Sculpting_map-s2"
        }
    ],
    "materials" : [
        {
            "doubleSided" : true,
            "name" : "Material.005",
            "pbrMetallicRoughness" : {
                "baseColorFactor" : [
                    0.08353323489427567,
                    0.018068306148052216,
                    0.0029246557969599962,
                    1
                ],
                "metallicFactor" : 0
            }
        }
    ],
    "meshes" : [
        {
            "name" : "Plane.004",
            "primitives" : [
                {
                    "attributes" : {
                        "POSITION" : 0,
                        "NORMAL" : 1,
                        "TEXCOORD_0" : 2
                    },
                    "indices" : 3,
                    "material" : 0
                }
            ]
        }
    ],
    "accessors" : [
        {
            "bufferView" : 0,
            "componentType" : 5126,
            "count" : 18563,
            "max" : [
                8.927201271057129,
                7.780150890350342,
                9.003467559814453
            ],
            "min" : [
                -8.94500732421875,
                -0.13616633415222168,
                -9.324565887451172
            ],
            "type" : "VEC3"
        },
        {
            "bufferView" : 1,
            "componentType" : 5126,
            "count" : 18563,
            "type" : "VEC3"
        },
        {
            "bufferView" : 2,
            "componentType" : 5126,
            "count" : 18563,
            "type" : "VEC2"
        },
        {
            "bufferView" : 3,
            "componentType" : 5123,
            "count" : 18576,
            "type" : "SCALAR"
        }
    ],
    "bufferViews" : [
        {
            "buffer" : 0,
            "byteLength" : 222756,
            "byteOffset" : 0,
            "target" : 34962
        },
        {
            "buffer" : 0,
            "byteLength" : 222756,
            "byteOffset" : 222756,
            "target" : 34962
        },
        {
            "buffer" : 0,
            "byteLength" : 148504,
            "byteOffset" : 445512,
            "target" : 34962
        },
        {
            "buffer" : 0,
            "byteLength" : 37152,
            "byteOffset" : 594016,
            "target" : 34963
        }
    ],
    "buffers" : [
        {
            "byteLength" : 631168,
            "uri" : "data:application/octet-stream;base64,"
        }
    ]
}
