{
    "asset" : {
        "generator" : "Khronos glTF Blender I/O v3.3.32",
        "version" : "2.0"
    },
    "extensionsUsed" : [
        "KHR_texture_transform",
        "KHR_materials_specular",
        "KHR_materials_ior"
    ],
    "extensionsRequired" : [
        "KHR_texture_transform"
    ],
    "scene" : 0,
    "scenes" : [
        {
            "name" : "Scene",
            "nodes" : [
                0,
                1,
                2,
                3,
                4
            ]
        }
    ],
    "nodes" : [
        {
            "mesh" : 0,
            "name" : "Origin_map"
        },
        {
            "mesh" : 1,
            "name" : "Texture_map"
        },
        {
            "mesh" : 2,
            "name" : "Sculpting_map"
        },
        {
            "mesh" : 3,
            "name" : "Map",
            "translation" : [
                0,
                0.04667377844452858,
                0
            ]
        },
        {
            "mesh" : 4,
            "name" : "Ocean",
            "scale" : [
                23.340679168701172,
                23.340679168701172,
                23.340679168701172
            ],
            "translation" : [
                0,
                0.039945147931575775,
                0
            ]
        }
    ],
    "materials" : [
        {
            "doubleSided" : true,
            "name" : "Material.001",
            "pbrMetallicRoughness" : {
                "baseColorTexture" : {
                    "extensions" : {
                        "KHR_texture_transform" : {
                            "offset" : [
                                0.9999999999999999,
                                0.9999999880751196
                            ],
                            "rotation" : 4.71238899230957
                        }
                    },
                    "index" : 0
                },
                "metallicFactor" : 0,
                "roughnessFactor" : 0.5
            }
        },
        {
            "doubleSided" : true,
            "name" : "Material.002",
            "pbrMetallicRoughness" : {
                "baseColorTexture" : {
                    "extensions" : {
                        "KHR_texture_transform" : {
                            "offset" : [
                                0.9999999999999999,
                                0.9999999880751196
                            ],
                            "rotation" : 4.71238899230957
                        }
                    },
                    "index" : 1
                },
                "metallicFactor" : 0,
                "roughnessFactor" : 0.5
            }
        },
        {
            "doubleSided" : true,
            "name" : "Material.004",
            "pbrMetallicRoughness" : {
                "baseColorTexture" : {
                    "index" : 2
                },
                "metallicFactor" : 0,
                "roughnessFactor" : 0.5
            }
        },
        {
            "doubleSided" : true,
            "extensions" : {
                "KHR_materials_specular" : {
                    "specularColorFactor" : [
                        0.5989511150676285,
                        0.5989511150676285,
                        0.5989511150676285
                    ]
                },
                "KHR_materials_ior" : {
                    "ior" : 1.4500000476837158
                }
            },
            "name" : "Material",
            "pbrMetallicRoughness" : {
                "baseColorFactor" : [
                    0.014772655442357063,
                    0.3156436085700989,
                    0.8000000715255737,
                    1
                ],
                "metallicFactor" : 0,
                "roughnessFactor" : 0.5
            }
        }
    ],
    "meshes" : [
        {
            "name" : "Plane",
            "primitives" : [
                {
                    "attributes" : {
                        "POSITION" : 0,
                        "NORMAL" : 1,
                        "TEXCOORD_0" : 2
                    },
                    "indices" : 3
                }
            ]
        },
        {
            "name" : "Plane.001",
            "primitives" : [
                {
                    "attributes" : {
                        "POSITION" : 4,
                        "NORMAL" : 5,
                        "TEXCOORD_0" : 6
                    },
                    "indices" : 3,
                    "material" : 0
                }
            ]
        },
        {
            "name" : "Plane.002",
            "primitives" : [
                {
                    "attributes" : {
                        "POSITION" : 7,
                        "NORMAL" : 8,
                        "TEXCOORD_0" : 9
                    },
                    "indices" : 10,
                    "material" : 1
                }
            ]
        },
        {
            "name" : "Plane.004",
            "primitives" : [
                {
                    "attributes" : {
                        "POSITION" : 11,
                        "NORMAL" : 12,
                        "TEXCOORD_0" : 13
                    },
                    "indices" : 14,
                    "material" : 2
                }
            ]
        },
        {
            "name" : "Circle",
            "primitives" : [
                {
                    "attributes" : {
                        "POSITION" : 15,
                        "NORMAL" : 16,
                        "TEXCOORD_0" : 17
                    },
                    "indices" : 18,
                    "material" : 3
                }
            ]
        }
    ],
    "textures" : [
        {
            "sampler" : 0,
            "source" : 0
        },
        {
            "sampler" : 0,
            "source" : 0
        },
        {
            "sampler" : 0,
            "source" : 1
        }
    ],
    "images" : [
        {
            "bufferView" : 7,
            "mimeType" : "image/png",
            "name" : "Map_texture-draft"
        },
        {
            "bufferView" : 16,
            "mimeType" : "image/png",
            "name" : "Untitled"
        }
    ],
    "accessors" : [
        {
            "bufferView" : 0,
            "componentType" : 5126,
            "count" : 4307,
            "max" : [
                8.927200317382812,
                0,
                9.003303527832031
            ],
            "min" : [
                -8.927200317382812,
                0,
                -9.003303527832031
            ],
            "type" : "VEC3"
        },
        {
            "bufferView" : 1,
            "componentType" : 5126,
            "count" : 4307,
            "type" : "VEC3"
        },
        {
            "bufferView" : 2,
            "componentType" : 5126,
            "count" : 4307,
            "type" : "VEC2"
        },
        {
            "bufferView" : 3,
            "componentType" : 5123,
            "count" : 18573,
            "type" : "SCALAR"
        },
        {
            "bufferView" : 4,
            "componentType" : 5126,
            "count" : 4307,
            "max" : [
                8.927200317382812,
                0,
                9.003303527832031
            ],
            "min" : [
                -8.927200317382812,
                0,
                -9.003303527832031
            ],
            "type" : "VEC3"
        },
        {
            "bufferView" : 5,
            "componentType" : 5126,
            "count" : 4307,
            "type" : "VEC3"
        },
        {
            "bufferView" : 6,
            "componentType" : 5126,
            "count" : 4307,
            "type" : "VEC2"
        },
        {
            "bufferView" : 8,
            "componentType" : 5126,
            "count" : 8448,
            "max" : [
                8.927200317382812,
                0.13746313750743866,
                9.003303527832031
            ],
            "min" : [
                -8.927200317382812,
                -1.2356120571155316e-08,
                -9.003303527832031
            ],
            "type" : "VEC3"
        },
        {
            "bufferView" : 9,
            "componentType" : 5126,
            "count" : 8448,
            "type" : "VEC3"
        },
        {
            "bufferView" : 10,
            "componentType" : 5126,
            "count" : 8448,
            "type" : "VEC2"
        },
        {
            "bufferView" : 11,
            "componentType" : 5123,
            "count" : 18573,
            "type" : "SCALAR"
        },
        {
            "bufferView" : 12,
            "componentType" : 5126,
            "count" : 31170,
            "max" : [
                9.623041152954102,
                7.760359287261963,
                9.002836227416992
            ],
            "min" : [
                -8.938515663146973,
                -0.2613218426704407,
                -9.294150352478027
            ],
            "type" : "VEC3"
        },
        {
            "bufferView" : 13,
            "componentType" : 5126,
            "count" : 31170,
            "type" : "VEC3"
        },
        {
            "bufferView" : 14,
            "componentType" : 5126,
            "count" : 31170,
            "type" : "VEC2"
        },
        {
            "bufferView" : 15,
            "componentType" : 5123,
            "count" : 34812,
            "type" : "SCALAR"
        },
        {
            "bufferView" : 17,
            "componentType" : 5126,
            "count" : 32,
            "max" : [
                1,
                0,
                1
            ],
            "min" : [
                -1,
                0,
                -1
            ],
            "type" : "VEC3"
        },
        {
            "bufferView" : 18,
            "componentType" : 5126,
            "count" : 32,
            "type" : "VEC3"
        },
        {
            "bufferView" : 19,
            "componentType" : 5126,
            "count" : 32,
            "type" : "VEC2"
        },
        {
            "bufferView" : 20,
            "componentType" : 5123,
            "count" : 90,
            "type" : "SCALAR"
        }
    ],
    "bufferViews" : [
        {
            "buffer" : 0,
            "byteLength" : 51684,
            "byteOffset" : 0,
            "target" : 34962
        },
        {
            "buffer" : 0,
            "byteLength" : 51684,
            "byteOffset" : 51684,
            "target" : 34962
        },
        {
            "buffer" : 0,
            "byteLength" : 34456,
            "byteOffset" : 103368,
            "target" : 34962
        },
        {
            "buffer" : 0,
            "byteLength" : 37146,
            "byteOffset" : 137824,
            "target" : 34963
        },
        {
            "buffer" : 0,
            "byteLength" : 51684,
            "byteOffset" : 174972,
            "target" : 34962
        },
        {
            "buffer" : 0,
            "byteLength" : 51684,
            "byteOffset" : 226656,
            "target" : 34962
        },
        {
            "buffer" : 0,
            "byteLength" : 34456,
            "byteOffset" : 278340,
            "target" : 34962
        },
        {
            "buffer" : 0,
            "byteLength" : 118517,
            "byteOffset" : 312796
        },
        {
            "buffer" : 0,
            "byteLength" : 101376,
            "byteOffset" : 431316,
            "target" : 34962
        },
        {
            "buffer" : 0,
            "byteLength" : 101376,
            "byteOffset" : 532692,
            "target" : 34962
        },
        {
            "buffer" : 0,
            "byteLength" : 67584,
            "byteOffset" : 634068,
            "target" : 34962
        },
        {
            "buffer" : 0,
            "byteLength" : 37146,
            "byteOffset" : 701652,
            "target" : 34963
        },
        {
            "buffer" : 0,
            "byteLength" : 374040,
            "byteOffset" : 738800,
            "target" : 34962
        },
        {
            "buffer" : 0,
            "byteLength" : 374040,
            "byteOffset" : 1112840,
            "target" : 34962
        },
        {
            "buffer" : 0,
            "byteLength" : 249360,
            "byteOffset" : 1486880,
            "target" : 34962
        },
        {
            "buffer" : 0,
            "byteLength" : 69624,
            "byteOffset" : 1736240,
            "target" : 34963
        },
        {
            "buffer" : 0,
            "byteLength" : 15802,
            "byteOffset" : 1805864
        },
        {
            "buffer" : 0,
            "byteLength" : 384,
            "byteOffset" : 1821668,
            "target" : 34962
        },
        {
            "buffer" : 0,
            "byteLength" : 384,
            "byteOffset" : 1822052,
            "target" : 34962
        },
        {
            "buffer" : 0,
            "byteLength" : 256,
            "byteOffset" : 1822436,
            "target" : 34962
        },
        {
            "buffer" : 0,
            "byteLength" : 180,
            "byteOffset" : 1822692,
            "target" : 34963
        }
    ],
    "samplers" : [
        {
            "magFilter" : 9729,
            "minFilter" : 9987
        }
    ],
    "buffers" : [
        {
            "byteLength" : 1822872,
            "uri" : "data:application/octet-stream;base64,"
        }
    ]
}
