{
	"asset":{
		"version":"2.0",
		"generator":"Created using the official Cinema 4D glTF Exporter 1.000x284978"
	},
	"scenes":[{
		"nodes":[0]
	}],
	"nodes":[{
		"name":"Cube.1",
		"mesh":0,
		"scale":[1.0,
		1.0,
		1.0],
		"translation":[0.0,
		0.012387392111122609,
		-1.913713812828064],
		"rotation":[0.0,
		0.0,
		0.0,
		-1.0]
	}],
	"meshes":[{
		"name":"Cube.1",
		"primitives":[{
			"indices":0,
			"attributes":{
				"POSITION":1,
				"NORMAL":2,
				"TEXCOORD_0":3
			}
		}]
	}],
	"accessors":[{
		"bufferView":0,
		"type":"SCALAR",
		"componentType":5123,
		"count":30528,
		"byteOffset":0,
		"min":[0],
		"max":[5491]
	},
	{
		"bufferView":1,
		"type":"VEC3",
		"componentType":5126,
		"count":5492,
		"byteOffset":0,
		"min":[-89.78377532958985,
		-0.060265976935625079,
		-14.244081497192383],
		"max":[89.78377532958985,
		183.82327270507813,
		19.817424774169923]
	},
	{
		"bufferView":1,
		"type":"VEC3",
		"componentType":5126,
		"count":5492,
		"byteOffset":12,
		"min":[-1.0,
		-1.0,
		-1.0],
		"max":[1.0,
		1.0,
		1.0]
	},
	{
		"bufferView":1,
		"type":"VEC2",
		"componentType":5126,
		"count":5492,
		"byteOffset":24,
		"min":[0.0,
		0.0],
		"max":[68750.15625,
		1.0]
	}],
	"bufferViews":[{
		"target":34963,
		"buffer":0,
		"byteOffset":0,
		"byteLength":61056
	},
	{
		"target":34962,
		"buffer":0,
		"byteOffset":61056,
		"byteLength":175744,
		"byteStride":32
	}],
	"buffers":[{
		"uri":"data:application/octet-stream;base64,",
		"byteLength":236800
	}]
}