<svg width="130" height="130" viewBox="0 0 130 130" fill="none" xmlns="http://www.w3.org/2000/svg">
<g clip-path="url(#clip0_371_396)">
<path d="M37.3404 47.0213H4.14894C3.04857 47.0213 1.99327 46.5842 1.21519 45.8061C0.437118 45.028 0 43.9727 0 42.8723V9.68085C0 8.58048 0.437118 7.52519 1.21519 6.74711C1.99327 5.96903 3.04857 5.53191 4.14894 5.53191C5.2493 5.53191 6.3046 5.96903 7.08268 6.74711C7.86075 7.52519 8.29787 8.58048 8.29787 9.68085V29.9138C18.2622 17.8059 37.5755 0 65 0C94.0426 0 111.461 17.0867 112.187 17.8128C112.921 18.5984 113.321 19.6382 113.304 20.7131C113.286 21.788 112.852 22.814 112.092 23.5751C111.333 24.3362 110.308 24.7728 109.233 24.793C108.158 24.8132 107.118 24.4155 106.33 23.6835C106.171 23.5106 90.4814 8.29787 65 8.29787C38.4399 8.29787 19.8872 28.2681 11.9973 38.7234H37.3404C38.4408 38.7234 39.4961 39.1605 40.2742 39.9386C41.0522 40.7167 41.4894 41.772 41.4894 42.8723C41.4894 43.9727 41.0522 45.028 40.2742 45.8061C39.4961 46.5842 38.4408 47.0213 37.3404 47.0213ZM125.851 82.9787H92.6596C91.5592 82.9787 90.5039 83.4158 89.7258 84.1939C88.9478 84.972 88.5106 86.0273 88.5106 87.1277C88.5106 88.228 88.9478 89.2833 89.7258 90.0614C90.5039 90.8395 91.5592 91.2766 92.6596 91.2766H118.003C110.113 101.732 91.5601 121.702 65 121.702C39.5186 121.702 23.8287 106.489 23.6697 106.316C22.8823 105.585 21.8416 105.187 20.7667 105.207C19.6919 105.227 18.6669 105.664 17.9076 106.425C17.1483 107.186 16.7141 108.212 16.6964 109.287C16.6787 110.362 17.0789 111.402 17.8128 112.187C18.5388 112.913 35.9574 130 65 130C92.4245 130 111.738 112.194 121.702 100.086V120.319C121.702 121.42 122.139 122.475 122.917 123.253C123.695 124.031 124.751 124.468 125.851 124.468C126.951 124.468 128.007 124.031 128.785 123.253C129.563 122.475 130 121.42 130 120.319V87.1277C130 86.0273 129.563 84.972 128.785 84.1939C128.007 83.4158 126.951 82.9787 125.851 82.9787Z" fill="#FEF9CB"/>
</g>
<defs>
<clipPath id="clip0_371_396">
<rect width="130" height="130" fill="white"/>
</clipPath>
</defs>
</svg>
