<svg width="453" height="283" viewBox="0 0 453 283" fill="none" xmlns="http://www.w3.org/2000/svg">
<path d="M12.2657 18.208L11.8177 9.36L8.6817 15.84L9.0977 16.704L7.0977 17.552L3.6417 9.936L2.4897 18.208L0.873703 18L1.7057 6.576L1.1777 5.52L3.6577 5.2L7.8177 14L10.9537 5.2L13.6897 5.52L13.1777 6.56L14.6977 18L12.2657 18.208ZM20.4832 18.176C19.5552 18.176 18.7499 17.9893 18.0672 17.616C17.3952 17.232 16.8725 16.6933 16.4992 16C16.1259 15.3067 15.9392 14.496 15.9392 13.568C15.9392 12.6293 16.1259 11.8133 16.4992 11.12C16.8725 10.4267 17.3952 9.888 18.0672 9.504C18.7499 9.12 19.5552 8.928 20.4832 8.928C21.4219 8.928 22.2272 9.12 22.8992 9.504C23.5819 9.888 24.1045 10.4267 24.4672 11.12C24.8299 11.8133 25.0112 12.6293 25.0112 13.568C25.0112 14.496 24.8299 15.3067 24.4672 16C24.1045 16.6933 23.5819 17.232 22.8992 17.616C22.2272 17.9893 21.4219 18.176 20.4832 18.176ZM20.7392 16.704C21.4112 16.6507 21.9339 16.368 22.3072 15.856C22.6805 15.3333 22.8672 14.6667 22.8672 13.856C22.8672 13.7707 22.8672 13.6907 22.8672 13.616C22.8672 13.5307 22.8619 13.4453 22.8512 13.36C22.7765 12.4427 22.5205 11.7227 22.0832 11.2C21.6565 10.6773 21.1125 10.416 20.4512 10.416C20.4085 10.416 20.3712 10.4213 20.3392 10.432C20.3072 10.432 20.2699 10.432 20.2272 10.432C19.5765 10.4747 19.0539 10.7573 18.6592 11.28C18.2752 11.8027 18.0832 12.4747 18.0832 13.296C18.0832 13.3707 18.0832 13.4507 18.0832 13.536C18.0832 13.6107 18.0885 13.6907 18.0992 13.776C18.1739 14.6827 18.4352 15.4027 18.8832 15.936C19.3312 16.4587 19.8805 16.72 20.5312 16.72C20.5632 16.72 20.5952 16.72 20.6272 16.72C20.6699 16.7093 20.7072 16.704 20.7392 16.704ZM29.4818 18.208L25.6578 9.296L28.0898 8.864L30.3938 15.68L32.9058 8.848L34.5218 9.36L31.3538 18L29.4818 18.208ZM43.4608 16.432C43.1515 16.848 42.8208 17.184 42.4688 17.44C42.1275 17.696 41.7328 17.8827 41.2848 18C40.8368 18.1173 40.2875 18.176 39.6368 18.176C38.7088 18.176 37.9142 17.9733 37.2528 17.568C36.5915 17.152 36.0848 16.5973 35.7328 15.904C35.3808 15.2 35.2048 14.416 35.2048 13.552C35.2048 12.6773 35.3862 11.8933 35.7488 11.2C36.1115 10.496 36.6182 9.94133 37.2688 9.536C37.9302 9.13067 38.6982 8.928 39.5728 8.928C40.4262 8.928 41.1568 9.12533 41.7648 9.52C42.3835 9.904 42.8582 10.4587 43.1888 11.184C43.5195 11.8987 43.6848 12.752 43.6848 13.744V14.016H37.8928L37.5408 12.768L41.4768 12.448C41.4448 11.8827 41.2848 11.424 40.9968 11.072C40.7195 10.7093 40.2715 10.528 39.6528 10.528C38.9382 10.528 38.3462 10.7947 37.8768 11.328C37.4182 11.8507 37.1888 12.5973 37.1888 13.568C37.1888 14.2613 37.3168 14.8373 37.5728 15.296C37.8395 15.744 38.1702 16.08 38.5648 16.304C38.9702 16.5173 39.3755 16.624 39.7808 16.624C40.4635 16.624 41.0715 16.512 41.6048 16.288C42.1488 16.0533 42.5755 15.7387 42.8848 15.344L43.4608 16.432Z" fill="#FEF9CB"/>
<path d="M81.3457 34H105.346C113.906 34 120.846 40.9396 120.846 49.5V73.5C120.846 82.0604 113.906 89 105.346 89H81.3457C72.7853 89 65.8457 82.0604 65.8457 73.5V49.5C65.8457 40.9396 72.7853 34 81.3457 34Z" stroke="#FEF9CB"/>
<g opacity="0.3">
<path d="M65.3457 49.5C65.3457 40.6634 72.5091 33.5 81.3457 33.5H105.346C114.182 33.5 121.346 40.6634 121.346 49.5V73.5C121.346 82.3366 114.182 89.5 105.346 89.5H81.3457C72.5091 89.5 65.3457 82.3366 65.3457 73.5V49.5Z" fill="#161616"/>
</g>
<path d="M88.793 59.6775L93.3455 55.125L97.898 59.6775M93.3455 67.875L93.3455 55.2525" stroke="#FFA800" stroke-width="2" stroke-miterlimit="10" stroke-linecap="round" stroke-linejoin="round"/>
<path d="M16.3457 98H40.3457C48.9061 98 55.8457 104.94 55.8457 113.5V137.5C55.8457 146.06 48.9061 153 40.3457 153H16.3457C7.78529 153 0.845703 146.06 0.845703 137.5V113.5C0.845703 104.94 7.78529 98 16.3457 98Z" stroke="#FEF9CB"/>
<g opacity="0.3">
<path d="M0.345703 113.5C0.345703 104.663 7.50915 97.5 16.3457 97.5H40.3457C49.1823 97.5 56.3457 104.663 56.3457 113.5V137.5C56.3457 146.337 49.1823 153.5 40.3457 153.5H16.3457C7.50915 153.5 0.345703 146.337 0.345703 137.5V113.5Z" fill="#161616"/>
</g>
<path d="M26.5232 130.052L21.9707 125.5L26.5232 120.947M34.7207 125.5L22.0982 125.5" stroke="#FFA800" stroke-width="2" stroke-miterlimit="10" stroke-linecap="round" stroke-linejoin="round"/>
<path d="M81.3457 98H105.346C113.906 98 120.846 104.94 120.846 113.5V137.5C120.846 146.06 113.906 153 105.346 153H81.3457C72.7853 153 65.8457 146.06 65.8457 137.5V113.5C65.8457 104.94 72.7853 98 81.3457 98Z" stroke="#FEF9CB"/>
<g opacity="0.3">
<path d="M65.3457 113.5C65.3457 104.663 72.5091 97.5 81.3457 97.5H105.346C114.182 97.5 121.346 104.663 121.346 113.5V137.5C121.346 146.337 114.182 153.5 105.346 153.5H81.3457C72.5091 153.5 65.3457 146.337 65.3457 137.5V113.5Z" fill="#161616"/>
</g>
<path d="M97.8984 127.323L93.3459 131.875L88.7934 127.323M93.3459 119.125L93.3459 131.747" stroke="#FFA800" stroke-width="2" stroke-miterlimit="10" stroke-linecap="round" stroke-linejoin="round"/>
<path d="M146.346 98H170.346C178.906 98 185.846 104.94 185.846 113.5V137.5C185.846 146.06 178.906 153 170.346 153H146.346C137.785 153 130.846 146.06 130.846 137.5V113.5C130.846 104.94 137.785 98 146.346 98Z" stroke="#FEF9CB"/>
<g opacity="0.3">
<path d="M130.346 113.5C130.346 104.663 137.509 97.5 146.346 97.5H170.346C179.182 97.5 186.346 104.663 186.346 113.5V137.5C186.346 146.337 179.182 153.5 170.346 153.5H146.346C137.509 153.5 130.346 146.337 130.346 137.5V113.5Z" fill="#161616"/>
</g>
<path d="M160.168 120.947L164.721 125.5L160.168 130.052M151.971 125.5H164.593" stroke="#FFA800" stroke-width="1.63334" stroke-miterlimit="10" stroke-linecap="round" stroke-linejoin="round"/>
<path d="M223.546 100.176C222.618 100.176 221.812 99.9893 221.13 99.616C220.458 99.232 219.935 98.6933 219.562 98C219.188 97.3067 219.002 96.496 219.002 95.568C219.002 94.6293 219.188 93.8133 219.562 93.12C219.935 92.4267 220.458 91.888 221.13 91.504C221.812 91.12 222.618 90.928 223.546 90.928C224.484 90.928 225.29 91.12 225.962 91.504C226.644 91.888 227.167 92.4267 227.53 93.12C227.892 93.8133 228.074 94.6293 228.074 95.568C228.074 96.496 227.892 97.3067 227.53 98C227.167 98.6933 226.644 99.232 225.962 99.616C225.29 99.9893 224.484 100.176 223.546 100.176ZM223.802 98.704C224.474 98.6507 224.996 98.368 225.37 97.856C225.743 97.3333 225.93 96.6667 225.93 95.856C225.93 95.7707 225.93 95.6907 225.93 95.616C225.93 95.5307 225.924 95.4453 225.914 95.36C225.839 94.4427 225.583 93.7227 225.146 93.2C224.719 92.6773 224.175 92.416 223.514 92.416C223.471 92.416 223.434 92.4213 223.402 92.432C223.37 92.432 223.332 92.432 223.29 92.432C222.639 92.4747 222.116 92.7573 221.722 93.28C221.338 93.8027 221.146 94.4747 221.146 95.296C221.146 95.3707 221.146 95.4507 221.146 95.536C221.146 95.6107 221.151 95.6907 221.162 95.776C221.236 96.6827 221.498 97.4027 221.946 97.936C222.394 98.4587 222.943 98.72 223.594 98.72C223.626 98.72 223.658 98.72 223.69 98.72C223.732 98.7093 223.77 98.704 223.802 98.704ZM230.192 100.224L229.872 90.848L232.144 91.12V92.032C232.347 91.776 232.55 91.568 232.752 91.408C232.966 91.248 233.232 91.1307 233.552 91.056C233.872 90.9813 234.294 90.9387 234.816 90.928L235.184 92.88C234.832 92.816 234.512 92.784 234.224 92.784C233.147 92.784 232.454 93.216 232.144 94.08V100L230.192 100.224Z" fill="#FEF9CB"/>
<path d="M348.346 33.5H372.346C380.906 33.5 387.846 40.4396 387.846 49V73C387.846 81.5604 380.906 88.5 372.346 88.5H348.346C339.785 88.5 332.846 81.5604 332.846 73V49C332.846 40.4396 339.785 33.5 348.346 33.5Z" stroke="#FEF9CB"/>
<g opacity="0.3">
<path d="M332.346 49C332.346 40.1634 339.509 33 348.346 33H372.346C381.182 33 388.346 40.1634 388.346 49V73C388.346 81.8366 381.182 89 372.346 89H348.346C339.509 89 332.346 81.8366 332.346 73V49Z" fill="#161616"/>
</g>
<path d="M362.457 67.74L360.537 59.036L358.201 66.06L358.489 67.228L356.537 67.74L352.697 55.02L355.337 54.7L357.417 63.66L359.257 55.084L361.737 55.404L361.417 56.364L363.545 63.596L365.401 54.7L367.977 55.02L364.393 66.156L364.729 67.228L362.457 67.74Z" fill="#FFA800"/>
<path d="M284.346 98.5H308.346C316.906 98.5 323.846 105.44 323.846 114V138C323.846 146.56 316.906 153.5 308.346 153.5H284.346C275.785 153.5 268.846 146.56 268.846 138V114C268.846 105.44 275.785 98.5 284.346 98.5Z" stroke="#FEF9CB"/>
<g opacity="0.3">
<path d="M268.346 114C268.346 105.163 275.509 98 284.346 98H308.346C317.182 98 324.346 105.163 324.346 114V138C324.346 146.837 317.182 154 308.346 154H284.346C275.509 154 268.346 146.837 268.346 138V114Z" fill="#161616"/>
</g>
<path d="M299.733 132.708L298.885 130.148H293.413L292.293 132.708L290.629 132.5L295.237 119.7L297.717 120.308L297.381 121.06L302.181 132.484L299.733 132.708ZM296.533 123.012L294.037 128.708L298.261 128.244L296.533 123.012Z" fill="#FFA800"/>
<path d="M348.346 98.5H372.346C380.906 98.5 387.846 105.44 387.846 114V138C387.846 146.56 380.906 153.5 372.346 153.5H348.346C339.785 153.5 332.846 146.56 332.846 138V114C332.846 105.44 339.785 98.5 348.346 98.5Z" stroke="#FEF9CB"/>
<g opacity="0.3">
<path d="M332.346 114C332.346 105.163 339.509 98 348.346 98H372.346C381.182 98 388.346 105.163 388.346 114V138C388.346 146.837 381.182 154 372.346 154H348.346C339.509 154 332.346 146.837 332.346 138V114Z" fill="#161616"/>
</g>
<path d="M363.096 124.02C363.032 123.444 362.914 122.985 362.744 122.644C362.584 122.303 362.402 122.047 362.2 121.876C361.944 121.652 361.65 121.492 361.32 121.396C361 121.289 360.594 121.236 360.104 121.236C359.421 121.236 358.904 121.428 358.552 121.812C358.2 122.185 358.024 122.628 358.024 123.14C358.024 123.471 358.189 123.785 358.52 124.084C358.861 124.372 359.309 124.607 359.864 124.788L361.784 125.412C362.776 125.732 363.544 126.159 364.088 126.692C364.642 127.225 364.92 127.972 364.92 128.932C364.92 130.148 364.52 131.097 363.72 131.78C362.93 132.452 361.8 132.788 360.328 132.788C359.08 132.788 358.04 132.495 357.208 131.908C356.386 131.321 355.816 130.543 355.496 129.572L356.68 128.788C356.989 129.503 357.458 130.073 358.088 130.5C358.728 130.916 359.474 131.124 360.328 131.124C361.053 131.124 361.64 130.937 362.088 130.564C362.536 130.18 362.76 129.716 362.76 129.172C362.76 128.724 362.573 128.34 362.2 128.02C361.826 127.7 361.309 127.423 360.648 127.188L358.84 126.564C357.858 126.223 357.138 125.807 356.68 125.316C356.221 124.825 355.992 124.137 355.992 123.252C355.992 122.601 356.157 122.009 356.488 121.476C356.818 120.943 357.298 120.516 357.928 120.196C358.568 119.876 359.33 119.716 360.216 119.716C361.218 119.716 362.109 119.881 362.888 120.212C363.666 120.543 364.237 120.953 364.6 121.444L364.152 124.02H363.096Z" fill="#FFA800"/>
<path d="M412.346 98.5H436.346C444.906 98.5 451.846 105.44 451.846 114V138C451.846 146.56 444.906 153.5 436.346 153.5H412.346C403.785 153.5 396.846 146.56 396.846 138V114C396.846 105.44 403.785 98.5 412.346 98.5Z" stroke="#FEF9CB"/>
<g opacity="0.3">
<path d="M396.346 114C396.346 105.163 403.509 98 412.346 98H436.346C445.182 98 452.346 105.163 452.346 114V138C452.346 146.837 445.182 154 436.346 154H412.346C403.509 154 396.346 146.837 396.346 138V114Z" fill="#161616"/>
</g>
<path d="M419.762 132.5L419.474 121.796C419.324 121.807 419.18 121.823 419.042 121.844C418.903 121.865 418.775 121.887 418.658 121.908L418.338 120.5C418.647 120.436 419.026 120.367 419.474 120.292C419.922 120.217 420.407 120.148 420.93 120.084C421.452 120.02 421.97 119.967 422.482 119.924C423.004 119.881 423.484 119.86 423.922 119.86C425.138 119.86 426.178 120.116 427.042 120.628C427.916 121.129 428.588 121.865 429.058 122.836C429.527 123.796 429.762 124.969 429.762 126.356C429.762 127.263 429.618 128.089 429.33 128.836C429.052 129.583 428.658 130.233 428.146 130.788C427.634 131.332 427.031 131.753 426.338 132.052C425.644 132.351 424.887 132.5 424.066 132.5H419.762ZM421.73 130.932C422.274 130.932 422.818 130.921 423.362 130.9C423.906 130.868 424.386 130.804 424.802 130.708C425.26 130.601 425.698 130.367 426.114 130.004C426.53 129.631 426.866 129.135 427.122 128.516C427.388 127.897 427.522 127.172 427.522 126.34C427.522 125.252 427.351 124.356 427.01 123.652C426.679 122.948 426.231 122.425 425.666 122.084C425.1 121.732 424.46 121.556 423.746 121.556C423.074 121.556 422.402 121.572 421.73 121.604V130.932Z" fill="#FFA800"/>
<path d="M10.3297 212.208C8.96437 211.227 7.75904 210.155 6.7137 208.992C5.67904 207.829 4.81504 206.603 4.1217 205.312L6.0097 204.32C6.08437 204.459 6.1537 204.587 6.2177 204.704C6.2817 204.811 6.3617 204.933 6.4577 205.072C6.78837 205.019 7.0977 204.917 7.3857 204.768C7.68437 204.619 7.92437 204.4 8.1057 204.112C8.2977 203.813 8.3937 203.429 8.3937 202.96C8.3937 202.363 8.21237 201.893 7.8497 201.552C7.48704 201.211 6.99637 201.04 6.3777 201.04C6.00437 201.04 5.6097 201.045 5.1937 201.056C4.78837 201.067 4.39904 201.088 4.0257 201.12L4.0097 212L2.0417 212.208L1.7697 201.296L0.985703 201.408L0.665703 200C0.96437 199.936 1.3537 199.872 1.8337 199.808C2.3137 199.733 2.83637 199.664 3.4017 199.6C3.96704 199.525 4.5217 199.467 5.0657 199.424C5.62037 199.381 6.11637 199.36 6.5537 199.36C7.79104 199.36 8.77237 199.669 9.4977 200.288C10.223 200.907 10.5857 201.797 10.5857 202.96C10.5857 203.653 10.4204 204.235 10.0897 204.704C9.75904 205.173 9.32704 205.541 8.7937 205.808C8.27104 206.064 7.71104 206.224 7.1137 206.288C8.11637 207.835 9.57237 209.461 11.4817 211.168L10.3297 212.208ZM20.6591 212.16C20.0084 211.808 19.5871 211.355 19.3951 210.8C19.2457 211.088 19.0111 211.333 18.6911 211.536C18.3711 211.739 18.0031 211.893 17.5871 212C17.1817 212.117 16.7657 212.176 16.3391 212.176C15.4644 212.176 14.7657 211.893 14.2431 211.328C13.7311 210.752 13.4484 210.027 13.3951 209.152L13.0751 202.848L15.3471 203.12V208.784C15.3471 209.328 15.4911 209.739 15.7791 210.016C16.0671 210.293 16.4564 210.432 16.9471 210.432C17.4057 210.432 17.8217 210.309 18.1951 210.064C18.5791 209.819 18.8404 209.461 18.9791 208.992V202.848L21.2511 203.12L20.9791 209.152V209.248C20.9791 209.643 21.0804 210.053 21.2831 210.48C21.4964 210.907 21.8004 211.301 22.1951 211.664L20.6591 212.16ZM29.5126 212.208V206.24C29.5126 205.707 29.3472 205.301 29.0166 205.024C28.6966 204.736 28.3072 204.592 27.8486 204.592C27.3899 204.592 26.9686 204.715 26.5846 204.96C26.2112 205.205 25.9499 205.563 25.8006 206.032V212L23.8486 212.208L23.5286 202.848L25.8006 203.12V204.16C26.0139 203.755 26.3286 203.451 26.7446 203.248C27.1712 203.035 27.7526 202.928 28.4886 202.928C29.1392 202.928 29.7099 203.067 30.2006 203.344C30.7019 203.621 31.0859 204 31.3526 204.48C31.6299 204.949 31.7526 205.483 31.7206 206.08L31.4006 212L29.5126 212.208Z" fill="#FEF9CB"/>
<path d="M16.3457 227.5H142.346C150.906 227.5 157.846 234.44 157.846 243V267C157.846 275.56 150.906 282.5 142.346 282.5H16.3457C7.78529 282.5 0.845703 275.56 0.845703 267V243C0.845703 234.44 7.78529 227.5 16.3457 227.5Z" stroke="#FEF9CB"/>
<g opacity="0.3">
<path d="M0.345703 243C0.345703 234.163 7.50915 227 16.3457 227H142.346C151.182 227 158.346 234.163 158.346 243V267C158.346 275.837 151.182 283 142.346 283H16.3457C7.50915 283 0.345703 275.837 0.345703 267V243Z" fill="#161616"/>
</g>
<path d="M62.9473 253.02C62.8833 252.444 62.766 251.985 62.5953 251.644C62.4353 251.303 62.254 251.047 62.0513 250.876C61.7953 250.652 61.502 250.492 61.1713 250.396C60.8513 250.289 60.446 250.236 59.9553 250.236C59.2727 250.236 58.7553 250.428 58.4033 250.812C58.0513 251.185 57.8753 251.628 57.8753 252.14C57.8753 252.471 58.0407 252.785 58.3713 253.084C58.7127 253.372 59.1607 253.607 59.7153 253.788L61.6353 254.412C62.6273 254.732 63.3953 255.159 63.9393 255.692C64.494 256.225 64.7713 256.972 64.7713 257.932C64.7713 259.148 64.3713 260.097 63.5713 260.78C62.782 261.452 61.6513 261.788 60.1793 261.788C58.9313 261.788 57.8913 261.495 57.0593 260.908C56.238 260.321 55.6673 259.543 55.3473 258.572L56.5313 257.788C56.8407 258.503 57.31 259.073 57.9393 259.5C58.5793 259.916 59.326 260.124 60.1793 260.124C60.9047 260.124 61.4913 259.937 61.9393 259.564C62.3873 259.18 62.6113 258.716 62.6113 258.172C62.6113 257.724 62.4247 257.34 62.0513 257.02C61.678 256.7 61.1607 256.423 60.4993 256.188L58.6913 255.564C57.71 255.223 56.99 254.807 56.5313 254.316C56.0727 253.825 55.8433 253.137 55.8433 252.252C55.8433 251.601 56.0087 251.009 56.3393 250.476C56.67 249.943 57.15 249.516 57.7793 249.196C58.4193 248.876 59.182 248.716 60.0673 248.716C61.07 248.716 61.9607 248.881 62.7393 249.212C63.518 249.543 64.0887 249.953 64.4513 250.444L64.0033 253.02H62.9473ZM74.5832 261.708V256.044H69.6392V261.5L67.5592 261.708L67.2392 248.7L69.6392 249.02V254.444L74.5832 254.044V248.7L76.9992 249.02L76.6792 261.5L74.5832 261.708ZM79.9431 261.708V248.7L82.4071 249.02L81.9271 261.5L79.9431 261.708ZM87.6998 256.412V261.388L85.6998 261.692L85.4118 250.892H84.7238L84.4038 249.468L93.5238 248.86V250.892H87.6998V254.796L92.8198 254.284V256.412H87.6998ZM98.0317 261.708V250.892H94.5757L94.0957 249.468L103.808 248.86V250.892H100.448L100.128 261.5L98.0317 261.708Z" fill="#FFA800"/>
<path d="M190.458 209.136L190.138 199.2L192.538 199.52V209.408C192.538 210.443 192.282 211.184 191.77 211.632C191.258 212.069 190.474 212.288 189.418 212.288C188.916 212.288 188.415 212.197 187.914 212.016C187.412 211.845 187.007 211.643 186.698 211.408L186.922 210.096C187.252 210.267 187.583 210.395 187.914 210.48C188.255 210.555 188.58 210.592 188.89 210.592C189.423 210.592 189.818 210.491 190.074 210.288C190.33 210.085 190.458 209.733 190.458 209.232V209.136ZM202.8 212.16C202.149 211.808 201.728 211.355 201.536 210.8C201.386 211.088 201.152 211.333 200.832 211.536C200.512 211.739 200.144 211.893 199.728 212C199.322 212.117 198.906 212.176 198.48 212.176C197.605 212.176 196.906 211.893 196.384 211.328C195.872 210.752 195.589 210.027 195.536 209.152L195.216 202.848L197.488 203.12V208.784C197.488 209.328 197.632 209.739 197.92 210.016C198.208 210.293 198.597 210.432 199.088 210.432C199.546 210.432 199.962 210.309 200.336 210.064C200.72 209.819 200.981 209.461 201.12 208.992V202.848L203.392 203.12L203.12 209.152V209.248C203.12 209.643 203.221 210.053 203.424 210.48C203.637 210.907 203.941 211.301 204.336 211.664L202.8 212.16ZM215.621 212.208V206.24C215.621 205.163 215.189 204.624 214.325 204.624C214.059 204.624 213.824 204.715 213.621 204.896C213.419 205.067 213.259 205.285 213.141 205.552C213.035 205.819 212.971 206.091 212.949 206.368L212.629 212L210.693 212.208V206.24C210.693 205.707 210.603 205.307 210.421 205.04C210.24 204.763 209.941 204.624 209.525 204.624C209.163 204.624 208.837 204.741 208.549 204.976C208.261 205.211 208.059 205.515 207.941 205.888V212L205.989 212.208L205.669 202.848L207.941 203.12V204.144C208.123 203.76 208.421 203.461 208.837 203.248C209.253 203.035 209.76 202.928 210.357 202.928C210.923 202.928 211.408 203.056 211.813 203.312C212.229 203.557 212.523 203.893 212.693 204.32C212.875 203.893 213.179 203.557 213.605 203.312C214.032 203.056 214.56 202.928 215.189 202.928C215.712 202.928 216.176 203.04 216.581 203.264C216.987 203.488 217.307 203.803 217.541 204.208C217.776 204.613 217.893 205.093 217.893 205.648V205.856L217.573 212L215.621 212.208ZM220.474 215.392L220.154 202.848L222.426 203.12V203.984C222.618 203.653 222.938 203.397 223.386 203.216C223.834 203.024 224.33 202.928 224.874 202.928C226.047 202.928 226.986 203.323 227.69 204.112C228.394 204.891 228.746 206.037 228.746 207.552C228.746 209.077 228.388 210.229 227.674 211.008C226.959 211.787 226.031 212.176 224.89 212.176C224.303 212.176 223.791 212.085 223.354 211.904C222.916 211.723 222.607 211.509 222.426 211.264V215.008L220.474 215.392ZM222.394 209.44C222.564 209.781 222.815 210.069 223.146 210.304C223.476 210.539 223.876 210.656 224.346 210.656C224.751 210.656 225.13 210.56 225.482 210.368C225.844 210.165 226.132 209.84 226.346 209.392C226.57 208.933 226.682 208.32 226.682 207.552C226.682 206.795 226.575 206.197 226.362 205.76C226.148 205.312 225.866 204.992 225.514 204.8C225.162 204.608 224.767 204.512 224.33 204.512C223.978 204.512 223.652 204.603 223.354 204.784C223.066 204.955 222.831 205.189 222.65 205.488C222.479 205.787 222.394 206.128 222.394 206.512V209.44Z" fill="#FEF9CB"/>
<path d="M202.346 227.5H436.346C444.906 227.5 451.846 234.44 451.846 243V267C451.846 275.56 444.906 282.5 436.346 282.5H202.346C193.785 282.5 186.846 275.56 186.846 267V243C186.846 234.44 193.785 227.5 202.346 227.5Z" stroke="#FEF9CB"/>
<g opacity="0.3">
<path d="M186.346 243C186.346 234.163 193.509 227 202.346 227H436.346C445.182 227 452.346 234.163 452.346 243V267C452.346 275.837 445.182 283 436.346 283H202.346C193.509 283 186.346 275.837 186.346 267V243Z" fill="#161616"/>
</g>
<path d="M299.986 253.02C299.922 252.444 299.805 251.985 299.634 251.644C299.474 251.303 299.293 251.047 299.09 250.876C298.834 250.652 298.541 250.492 298.21 250.396C297.89 250.289 297.485 250.236 296.994 250.236C296.312 250.236 295.794 250.428 295.442 250.812C295.09 251.185 294.914 251.628 294.914 252.14C294.914 252.471 295.08 252.785 295.41 253.084C295.752 253.372 296.2 253.607 296.754 253.788L298.674 254.412C299.666 254.732 300.434 255.159 300.978 255.692C301.533 256.225 301.81 256.972 301.81 257.932C301.81 259.148 301.41 260.097 300.61 260.78C299.821 261.452 298.69 261.788 297.218 261.788C295.97 261.788 294.93 261.495 294.098 260.908C293.277 260.321 292.706 259.543 292.386 258.572L293.57 257.788C293.88 258.503 294.349 259.073 294.978 259.5C295.618 259.916 296.365 260.124 297.218 260.124C297.944 260.124 298.53 259.937 298.978 259.564C299.426 259.18 299.65 258.716 299.65 258.172C299.65 257.724 299.464 257.34 299.09 257.02C298.717 256.7 298.2 256.423 297.538 256.188L295.73 255.564C294.749 255.223 294.029 254.807 293.57 254.316C293.112 253.825 292.882 253.137 292.882 252.252C292.882 251.601 293.048 251.009 293.378 250.476C293.709 249.943 294.189 249.516 294.818 249.196C295.458 248.876 296.221 248.716 297.106 248.716C298.109 248.716 299 248.881 299.778 249.212C300.557 249.543 301.128 249.953 301.49 250.444L301.042 253.02H299.986ZM304.518 261.724L304.246 250.796L303.462 250.908L303.142 249.5C303.441 249.436 303.836 249.372 304.326 249.308C304.828 249.233 305.372 249.164 305.958 249.1C306.545 249.025 307.121 248.967 307.686 248.924C308.252 248.881 308.753 248.86 309.19 248.86C310.001 248.86 310.748 249.025 311.43 249.356C312.113 249.687 312.662 250.151 313.078 250.748C313.494 251.345 313.702 252.039 313.702 252.828C313.702 253.799 313.494 254.609 313.078 255.26C312.662 255.9 312.108 256.38 311.414 256.7C310.732 257.02 309.969 257.18 309.126 257.18C308.774 257.18 308.374 257.137 307.926 257.052C307.478 256.967 307.004 256.812 306.502 256.588V261.5L304.518 261.724ZM306.502 255.068C306.737 255.153 306.998 255.233 307.286 255.308C307.574 255.372 307.852 255.42 308.118 255.452C308.396 255.484 308.614 255.5 308.774 255.5C309.553 255.5 310.193 255.292 310.694 254.876C311.206 254.449 311.462 253.799 311.462 252.924C311.462 252.433 311.345 252.012 311.11 251.66C310.876 251.308 310.572 251.036 310.198 250.844C309.825 250.652 309.43 250.556 309.014 250.556C308.641 250.556 308.225 250.561 307.766 250.572C307.308 250.572 306.886 250.588 306.502 250.62V255.068ZM322.116 261.708L321.268 259.148H315.796L314.676 261.708L313.012 261.5L317.62 248.7L320.1 249.308L319.764 250.06L324.564 261.484L322.116 261.708ZM318.916 252.012L316.42 257.708L320.644 257.244L318.916 252.012ZM335.949 259.18C335.693 259.639 335.325 260.071 334.845 260.476C334.376 260.871 333.826 261.191 333.197 261.436C332.578 261.671 331.912 261.788 331.197 261.788C330.034 261.788 329.016 261.527 328.141 261.004C327.266 260.471 326.584 259.713 326.093 258.732C325.602 257.74 325.357 256.567 325.357 255.212C325.357 253.911 325.602 252.775 326.093 251.804C326.584 250.823 327.266 250.065 328.141 249.532C329.016 248.988 330.029 248.716 331.181 248.716C332.184 248.716 333.074 248.881 333.853 249.212C334.632 249.543 335.202 249.953 335.565 250.444L335.117 253.34H334.061C333.89 252.199 333.592 251.441 333.165 251.068C332.909 250.844 332.616 250.684 332.285 250.588C331.965 250.481 331.56 250.428 331.069 250.428C330.418 250.428 329.826 250.604 329.293 250.956C328.77 251.297 328.354 251.825 328.045 252.54C327.736 253.244 327.581 254.135 327.581 255.212C327.581 256.193 327.752 257.041 328.093 257.756C328.434 258.46 328.893 259.004 329.469 259.388C330.045 259.761 330.685 259.948 331.389 259.948C331.89 259.948 332.37 259.863 332.829 259.692C333.288 259.511 333.704 259.281 334.077 259.004C334.461 258.716 334.776 258.412 335.021 258.092L335.949 259.18ZM337.973 261.5L337.685 250.86H336.997L336.677 249.468L346.085 248.86V250.86H340.021V254.428L345.285 253.948V256.06H340.021V259.82L346.389 259.34V261.5H337.973Z" fill="#FFA800"/>
</svg>
