<svg width="238" height="454" viewBox="0 0 238 454" fill="none" xmlns="http://www.w3.org/2000/svg">
<path d="M106.75 29.5H130.75C139.31 29.5 146.25 36.4396 146.25 45V69C146.25 77.5604 139.31 84.5 130.75 84.5H106.75C98.1896 84.5 91.25 77.5604 91.25 69V45C91.25 36.4396 98.1896 29.5 106.75 29.5Z" stroke="#FEF9CB"/>
<g opacity="0.3">
<path d="M90.75 45C90.75 36.1634 97.9134 29 106.75 29H130.75C139.587 29 146.75 36.1634 146.75 45V69C146.75 77.8366 139.587 85 130.75 85H106.75C97.9134 85 90.75 77.8366 90.75 69V45Z" fill="#161616"/>
</g>
<path d="M114.197 55.1775L118.75 50.625L123.302 55.1775M118.75 63.375L118.75 50.7525" stroke="#FFA800" stroke-width="2" stroke-miterlimit="10" stroke-linecap="round" stroke-linejoin="round"/>
<path d="M41.75 93.5H65.75C74.3104 93.5 81.25 100.44 81.25 109V133C81.25 141.56 74.3104 148.5 65.75 148.5H41.75C33.1896 148.5 26.25 141.56 26.25 133V109C26.25 100.44 33.1896 93.5 41.75 93.5Z" stroke="#FEF9CB"/>
<g opacity="0.3">
<path d="M25.75 109C25.75 100.163 32.9134 93 41.75 93H65.75C74.5866 93 81.75 100.163 81.75 109V133C81.75 141.837 74.5866 149 65.75 149H41.75C32.9134 149 25.75 141.837 25.75 133V109Z" fill="#161616"/>
</g>
<path d="M51.9275 125.552L47.375 121L51.9275 116.447M60.125 121L47.5025 121" stroke="#FFA800" stroke-width="2" stroke-miterlimit="10" stroke-linecap="round" stroke-linejoin="round"/>
<path d="M106.75 93.5H130.75C139.31 93.5 146.25 100.44 146.25 109V133C146.25 141.56 139.31 148.5 130.75 148.5H106.75C98.1896 148.5 91.25 141.56 91.25 133V109C91.25 100.44 98.1896 93.5 106.75 93.5Z" stroke="#FEF9CB"/>
<g opacity="0.3">
<path d="M90.75 109C90.75 100.163 97.9134 93 106.75 93H130.75C139.587 93 146.75 100.163 146.75 109V133C146.75 141.837 139.587 149 130.75 149H106.75C97.9134 149 90.75 141.837 90.75 133V109Z" fill="#161616"/>
</g>
<path d="M123.303 122.823L118.75 127.375L114.198 122.823M118.75 114.625L118.75 127.247" stroke="#FFA800" stroke-width="2" stroke-miterlimit="10" stroke-linecap="round" stroke-linejoin="round"/>
<path d="M171.75 93.5H195.75C204.31 93.5 211.25 100.44 211.25 109V133C211.25 141.56 204.31 148.5 195.75 148.5H171.75C163.19 148.5 156.25 141.56 156.25 133V109C156.25 100.44 163.19 93.5 171.75 93.5Z" stroke="#FEF9CB"/>
<g opacity="0.3">
<path d="M155.75 109C155.75 100.163 162.913 93 171.75 93H195.75C204.587 93 211.75 100.163 211.75 109V133C211.75 141.837 204.587 149 195.75 149H171.75C162.913 149 155.75 141.837 155.75 133V109Z" fill="#161616"/>
</g>
<path d="M185.572 116.447L190.125 121L185.572 125.552M177.375 121H189.997" stroke="#FFA800" stroke-width="1.63334" stroke-miterlimit="10" stroke-linecap="round" stroke-linejoin="round"/>
<path d="M114.95 183.176C114.022 183.176 113.217 182.989 112.534 182.616C111.862 182.232 111.339 181.693 110.966 181C110.593 180.307 110.406 179.496 110.406 178.568C110.406 177.629 110.593 176.813 110.966 176.12C111.339 175.427 111.862 174.888 112.534 174.504C113.217 174.12 114.022 173.928 114.95 173.928C115.889 173.928 116.694 174.12 117.366 174.504C118.049 174.888 118.571 175.427 118.934 176.12C119.297 176.813 119.478 177.629 119.478 178.568C119.478 179.496 119.297 180.307 118.934 181C118.571 181.693 118.049 182.232 117.366 182.616C116.694 182.989 115.889 183.176 114.95 183.176ZM115.206 181.704C115.878 181.651 116.401 181.368 116.774 180.856C117.147 180.333 117.334 179.667 117.334 178.856C117.334 178.771 117.334 178.691 117.334 178.616C117.334 178.531 117.329 178.445 117.318 178.36C117.243 177.443 116.987 176.723 116.55 176.2C116.123 175.677 115.579 175.416 114.918 175.416C114.875 175.416 114.838 175.421 114.806 175.432C114.774 175.432 114.737 175.432 114.694 175.432C114.043 175.475 113.521 175.757 113.126 176.28C112.742 176.803 112.55 177.475 112.55 178.296C112.55 178.371 112.55 178.451 112.55 178.536C112.55 178.611 112.555 178.691 112.566 178.776C112.641 179.683 112.902 180.403 113.35 180.936C113.798 181.459 114.347 181.72 114.998 181.72C115.03 181.72 115.062 181.72 115.094 181.72C115.137 181.709 115.174 181.704 115.206 181.704ZM121.597 183.224L121.277 173.848L123.549 174.12V175.032C123.751 174.776 123.954 174.568 124.157 174.408C124.37 174.248 124.637 174.131 124.957 174.056C125.277 173.981 125.698 173.939 126.221 173.928L126.589 175.88C126.237 175.816 125.917 175.784 125.629 175.784C124.551 175.784 123.858 176.216 123.549 177.08V183L121.597 183.224Z" fill="#FEF9CB"/>
<path d="M106.75 204.5H130.75C139.31 204.5 146.25 211.44 146.25 220V244C146.25 252.56 139.31 259.5 130.75 259.5H106.75C98.1896 259.5 91.25 252.56 91.25 244V220C91.25 211.44 98.1896 204.5 106.75 204.5Z" stroke="#FEF9CB"/>
<g opacity="0.3">
<path d="M90.75 220C90.75 211.163 97.9134 204 106.75 204H130.75C139.587 204 146.75 211.163 146.75 220V244C146.75 252.837 139.587 260 130.75 260H106.75C97.9134 260 90.75 252.837 90.75 244V220Z" fill="#161616"/>
</g>
<path d="M120.862 238.74L118.942 230.036L116.606 237.06L116.894 238.228L114.942 238.74L111.102 226.02L113.742 225.7L115.822 234.66L117.662 226.084L120.142 226.404L119.822 227.364L121.95 234.596L123.806 225.7L126.382 226.02L122.798 237.156L123.134 238.228L120.862 238.74Z" fill="#FFA800"/>
<path d="M42.75 269.5H66.75C75.3104 269.5 82.25 276.44 82.25 285V309C82.25 317.56 75.3104 324.5 66.75 324.5H42.75C34.1896 324.5 27.25 317.56 27.25 309V285C27.25 276.44 34.1896 269.5 42.75 269.5Z" stroke="#FEF9CB"/>
<g opacity="0.3">
<path d="M26.75 285C26.75 276.163 33.9134 269 42.75 269H66.75C75.5866 269 82.75 276.163 82.75 285V309C82.75 317.837 75.5866 325 66.75 325H42.75C33.9134 325 26.75 317.837 26.75 309V285Z" fill="#161616"/>
</g>
<path d="M58.1375 303.708L57.2895 301.148H51.8175L50.6975 303.708L49.0335 303.5L53.6415 290.7L56.1215 291.308L55.7855 292.06L60.5855 303.484L58.1375 303.708ZM54.9375 294.012L52.4415 299.708L56.6655 299.244L54.9375 294.012Z" fill="#FFA800"/>
<path d="M106.75 269.5H130.75C139.31 269.5 146.25 276.44 146.25 285V309C146.25 317.56 139.31 324.5 130.75 324.5H106.75C98.1896 324.5 91.25 317.56 91.25 309V285C91.25 276.44 98.1896 269.5 106.75 269.5Z" stroke="#FEF9CB"/>
<g opacity="0.3">
<path d="M90.75 285C90.75 276.163 97.9134 269 106.75 269H130.75C139.587 269 146.75 276.163 146.75 285V309C146.75 317.837 139.587 325 130.75 325H106.75C97.9134 325 90.75 317.837 90.75 309V285Z" fill="#161616"/>
</g>
<path d="M121.5 295.02C121.436 294.444 121.319 293.985 121.148 293.644C120.988 293.303 120.807 293.047 120.604 292.876C120.348 292.652 120.055 292.492 119.724 292.396C119.404 292.289 118.999 292.236 118.508 292.236C117.825 292.236 117.308 292.428 116.956 292.812C116.604 293.185 116.428 293.628 116.428 294.14C116.428 294.471 116.593 294.785 116.924 295.084C117.265 295.372 117.713 295.607 118.268 295.788L120.188 296.412C121.18 296.732 121.948 297.159 122.492 297.692C123.047 298.225 123.324 298.972 123.324 299.932C123.324 301.148 122.924 302.097 122.124 302.78C121.335 303.452 120.204 303.788 118.732 303.788C117.484 303.788 116.444 303.495 115.612 302.908C114.791 302.321 114.22 301.543 113.9 300.572L115.084 299.788C115.393 300.503 115.863 301.073 116.492 301.5C117.132 301.916 117.879 302.124 118.732 302.124C119.457 302.124 120.044 301.937 120.492 301.564C120.94 301.18 121.164 300.716 121.164 300.172C121.164 299.724 120.977 299.34 120.604 299.02C120.231 298.7 119.713 298.423 119.052 298.188L117.244 297.564C116.263 297.223 115.543 296.807 115.084 296.316C114.625 295.825 114.396 295.137 114.396 294.252C114.396 293.601 114.561 293.009 114.892 292.476C115.223 291.943 115.703 291.516 116.332 291.196C116.972 290.876 117.735 290.716 118.62 290.716C119.623 290.716 120.513 290.881 121.292 291.212C122.071 291.543 122.641 291.953 123.004 292.444L122.556 295.02H121.5Z" fill="#FFA800"/>
<path d="M170.75 269.5H194.75C203.31 269.5 210.25 276.44 210.25 285V309C210.25 317.56 203.31 324.5 194.75 324.5H170.75C162.19 324.5 155.25 317.56 155.25 309V285C155.25 276.44 162.19 269.5 170.75 269.5Z" stroke="#FEF9CB"/>
<g opacity="0.3">
<path d="M154.75 285C154.75 276.163 161.913 269 170.75 269H194.75C203.587 269 210.75 276.163 210.75 285V309C210.75 317.837 203.587 325 194.75 325H170.75C161.913 325 154.75 317.837 154.75 309V285Z" fill="#161616"/>
</g>
<path d="M178.166 303.5L177.878 292.796C177.729 292.807 177.585 292.823 177.446 292.844C177.307 292.865 177.179 292.887 177.062 292.908L176.742 291.5C177.051 291.436 177.43 291.367 177.878 291.292C178.326 291.217 178.811 291.148 179.334 291.084C179.857 291.02 180.374 290.967 180.886 290.924C181.409 290.881 181.889 290.86 182.326 290.86C183.542 290.86 184.582 291.116 185.446 291.628C186.321 292.129 186.993 292.865 187.462 293.836C187.931 294.796 188.166 295.969 188.166 297.356C188.166 298.263 188.022 299.089 187.734 299.836C187.457 300.583 187.062 301.233 186.55 301.788C186.038 302.332 185.435 302.753 184.742 303.052C184.049 303.351 183.291 303.5 182.47 303.5H178.166ZM180.134 301.932C180.678 301.932 181.222 301.921 181.766 301.9C182.31 301.868 182.79 301.804 183.206 301.708C183.665 301.601 184.102 301.367 184.518 301.004C184.934 300.631 185.27 300.135 185.526 299.516C185.793 298.897 185.926 298.172 185.926 297.34C185.926 296.252 185.755 295.356 185.414 294.652C185.083 293.948 184.635 293.425 184.07 293.084C183.505 292.732 182.865 292.556 182.15 292.556C181.478 292.556 180.806 292.572 180.134 292.604V301.932Z" fill="#FFA800"/>
<path d="M36.984 383.208C35.6187 382.227 34.4133 381.155 33.368 379.992C32.3333 378.829 31.4693 377.603 30.776 376.312L32.664 375.32C32.7387 375.459 32.808 375.587 32.872 375.704C32.936 375.811 33.016 375.933 33.112 376.072C33.4427 376.019 33.752 375.917 34.04 375.768C34.3387 375.619 34.5787 375.4 34.76 375.112C34.952 374.813 35.048 374.429 35.048 373.96C35.048 373.363 34.8667 372.893 34.504 372.552C34.1413 372.211 33.6507 372.04 33.032 372.04C32.6587 372.04 32.264 372.045 31.848 372.056C31.4427 372.067 31.0533 372.088 30.68 372.12L30.664 383L28.696 383.208L28.424 372.296L27.64 372.408L27.32 371C27.6187 370.936 28.008 370.872 28.488 370.808C28.968 370.733 29.4907 370.664 30.056 370.6C30.6213 370.525 31.176 370.467 31.72 370.424C32.2747 370.381 32.7707 370.36 33.208 370.36C34.4453 370.36 35.4267 370.669 36.152 371.288C36.8773 371.907 37.24 372.797 37.24 373.96C37.24 374.653 37.0747 375.235 36.744 375.704C36.4133 376.173 35.9813 376.541 35.448 376.808C34.9253 377.064 34.3653 377.224 33.768 377.288C34.7707 378.835 36.2267 380.461 38.136 382.168L36.984 383.208ZM47.3134 383.16C46.6627 382.808 46.2414 382.355 46.0494 381.8C45.9 382.088 45.6654 382.333 45.3454 382.536C45.0254 382.739 44.6574 382.893 44.2414 383C43.836 383.117 43.42 383.176 42.9934 383.176C42.1187 383.176 41.42 382.893 40.8974 382.328C40.3854 381.752 40.1027 381.027 40.0494 380.152L39.7294 373.848L42.0014 374.12V379.784C42.0014 380.328 42.1454 380.739 42.4334 381.016C42.7214 381.293 43.1107 381.432 43.6014 381.432C44.06 381.432 44.476 381.309 44.8494 381.064C45.2334 380.819 45.4947 380.461 45.6334 379.992V373.848L47.9054 374.12L47.6334 380.152V380.248C47.6334 380.643 47.7347 381.053 47.9374 381.48C48.1507 381.907 48.4547 382.301 48.8494 382.664L47.3134 383.16ZM56.1669 383.208V377.24C56.1669 376.707 56.0015 376.301 55.6709 376.024C55.3509 375.736 54.9615 375.592 54.5029 375.592C54.0442 375.592 53.6229 375.715 53.2389 375.96C52.8655 376.205 52.6042 376.563 52.4549 377.032V383L50.5029 383.208L50.1829 373.848L52.4549 374.12V375.16C52.6682 374.755 52.9829 374.451 53.3989 374.248C53.8255 374.035 54.4069 373.928 55.1429 373.928C55.7935 373.928 56.3642 374.067 56.8549 374.344C57.3562 374.621 57.7402 375 58.0069 375.48C58.2842 375.949 58.4069 376.483 58.3749 377.08L58.0549 383L56.1669 383.208Z" fill="#FEF9CB"/>
<path d="M16 398.5H71C79.5604 398.5 86.5 405.44 86.5 414V438C86.5 446.56 79.5604 453.5 71 453.5H16C7.43959 453.5 0.5 446.56 0.5 438V414C0.5 405.44 7.43959 398.5 16 398.5Z" stroke="#FEF9CB"/>
<g opacity="0.3">
<path d="M0 414C0 405.163 7.16344 398 16 398H71C79.8366 398 87 405.163 87 414V438C87 446.837 79.8366 454 71 454H16C7.16344 454 0 446.837 0 438V414Z" fill="#161616"/>
</g>
<path d="M27.1016 424.02C27.0376 423.444 26.9203 422.985 26.7496 422.644C26.5896 422.303 26.4083 422.047 26.2056 421.876C25.9496 421.652 25.6563 421.492 25.3256 421.396C25.0056 421.289 24.6003 421.236 24.1096 421.236C23.427 421.236 22.9096 421.428 22.5576 421.812C22.2056 422.185 22.0296 422.628 22.0296 423.14C22.0296 423.471 22.195 423.785 22.5256 424.084C22.867 424.372 23.315 424.607 23.8696 424.788L25.7896 425.412C26.7816 425.732 27.5496 426.159 28.0936 426.692C28.6483 427.225 28.9256 427.972 28.9256 428.932C28.9256 430.148 28.5256 431.097 27.7256 431.78C26.9363 432.452 25.8056 432.788 24.3336 432.788C23.0856 432.788 22.0456 432.495 21.2136 431.908C20.3923 431.321 19.8216 430.543 19.5016 429.572L20.6856 428.788C20.995 429.503 21.4643 430.073 22.0936 430.5C22.7336 430.916 23.4803 431.124 24.3336 431.124C25.059 431.124 25.6456 430.937 26.0936 430.564C26.5416 430.18 26.7656 429.716 26.7656 429.172C26.7656 428.724 26.579 428.34 26.2056 428.02C25.8323 427.7 25.315 427.423 24.6536 427.188L22.8456 426.564C21.8643 426.223 21.1443 425.807 20.6856 425.316C20.227 424.825 19.9976 424.137 19.9976 423.252C19.9976 422.601 20.163 422.009 20.4936 421.476C20.8243 420.943 21.3043 420.516 21.9336 420.196C22.5736 419.876 23.3363 419.716 24.2216 419.716C25.2243 419.716 26.115 419.881 26.8936 420.212C27.6723 420.543 28.243 420.953 28.6056 421.444L28.1576 424.02H27.1016ZM38.7375 432.708V427.044H33.7935V432.5L31.7135 432.708L31.3935 419.7L33.7935 420.02V425.444L38.7375 425.044V419.7L41.1535 420.02L40.8335 432.5L38.7375 432.708ZM44.0974 432.708V419.7L46.5614 420.02L46.0814 432.5L44.0974 432.708ZM51.8541 427.412V432.388L49.8541 432.692L49.5661 421.892H48.8781L48.5581 420.468L57.6781 419.86V421.892H51.8541V425.796L56.9741 425.284V427.412H51.8541ZM62.186 432.708V421.892H58.73L58.25 420.468L67.962 419.86V421.892H64.602L64.282 432.5L62.186 432.708Z" fill="#FFA800"/>
<path d="M151.112 380.136L150.792 370.2L153.192 370.52V380.408C153.192 381.443 152.936 382.184 152.424 382.632C151.912 383.069 151.128 383.288 150.072 383.288C149.571 383.288 149.069 383.197 148.568 383.016C148.067 382.845 147.661 382.643 147.352 382.408L147.576 381.096C147.907 381.267 148.237 381.395 148.568 381.48C148.909 381.555 149.235 381.592 149.544 381.592C150.077 381.592 150.472 381.491 150.728 381.288C150.984 381.085 151.112 380.733 151.112 380.232V380.136ZM163.454 383.16C162.803 382.808 162.382 382.355 162.19 381.8C162.041 382.088 161.806 382.333 161.486 382.536C161.166 382.739 160.798 382.893 160.382 383C159.977 383.117 159.561 383.176 159.134 383.176C158.259 383.176 157.561 382.893 157.038 382.328C156.526 381.752 156.243 381.027 156.19 380.152L155.87 373.848L158.142 374.12V379.784C158.142 380.328 158.286 380.739 158.574 381.016C158.862 381.293 159.251 381.432 159.742 381.432C160.201 381.432 160.617 381.309 160.99 381.064C161.374 380.819 161.635 380.461 161.774 379.992V373.848L164.046 374.12L163.774 380.152V380.248C163.774 380.643 163.875 381.053 164.078 381.48C164.291 381.907 164.595 382.301 164.99 382.664L163.454 383.16ZM176.276 383.208V377.24C176.276 376.163 175.844 375.624 174.98 375.624C174.713 375.624 174.478 375.715 174.276 375.896C174.073 376.067 173.913 376.285 173.796 376.552C173.689 376.819 173.625 377.091 173.604 377.368L173.284 383L171.348 383.208V377.24C171.348 376.707 171.257 376.307 171.076 376.04C170.894 375.763 170.596 375.624 170.18 375.624C169.817 375.624 169.492 375.741 169.204 375.976C168.916 376.211 168.713 376.515 168.596 376.888V383L166.644 383.208L166.324 373.848L168.596 374.12V375.144C168.777 374.76 169.076 374.461 169.492 374.248C169.908 374.035 170.414 373.928 171.012 373.928C171.577 373.928 172.062 374.056 172.468 374.312C172.884 374.557 173.177 374.893 173.348 375.32C173.529 374.893 173.833 374.557 174.26 374.312C174.686 374.056 175.214 373.928 175.844 373.928C176.366 373.928 176.83 374.04 177.236 374.264C177.641 374.488 177.961 374.803 178.196 375.208C178.43 375.613 178.548 376.093 178.548 376.648V376.856L178.228 383L176.276 383.208ZM181.128 386.392L180.808 373.848L183.08 374.12V374.984C183.272 374.653 183.592 374.397 184.04 374.216C184.488 374.024 184.984 373.928 185.528 373.928C186.701 373.928 187.64 374.323 188.344 375.112C189.048 375.891 189.4 377.037 189.4 378.552C189.4 380.077 189.043 381.229 188.328 382.008C187.613 382.787 186.685 383.176 185.544 383.176C184.957 383.176 184.445 383.085 184.008 382.904C183.571 382.723 183.261 382.509 183.08 382.264V386.008L181.128 386.392ZM183.048 380.44C183.219 380.781 183.469 381.069 183.8 381.304C184.131 381.539 184.531 381.656 185 381.656C185.405 381.656 185.784 381.56 186.136 381.368C186.499 381.165 186.787 380.84 187 380.392C187.224 379.933 187.336 379.32 187.336 378.552C187.336 377.795 187.229 377.197 187.016 376.76C186.803 376.312 186.52 375.992 186.168 375.8C185.816 375.608 185.421 375.512 184.984 375.512C184.632 375.512 184.307 375.603 184.008 375.784C183.72 375.955 183.485 376.189 183.304 376.488C183.133 376.787 183.048 377.128 183.048 377.512V380.44Z" fill="#FEF9CB"/>
<path d="M116 398.5H222C230.56 398.5 237.5 405.44 237.5 414V438C237.5 446.56 230.56 453.5 222 453.5H116C107.44 453.5 100.5 446.56 100.5 438V414C100.5 405.44 107.44 398.5 116 398.5Z" stroke="#FEF9CB"/>
<g opacity="0.3">
<path d="M100 414C100 405.163 107.163 398 116 398H222C230.837 398 238 405.163 238 414V438C238 446.837 230.837 454 222 454H116C107.163 454 100 446.837 100 438V414Z" fill="#161616"/>
</g>
<path d="M149.641 424.02C149.577 423.444 149.459 422.985 149.289 422.644C149.129 422.303 148.947 422.047 148.745 421.876C148.489 421.652 148.195 421.492 147.865 421.396C147.545 421.289 147.139 421.236 146.649 421.236C145.966 421.236 145.449 421.428 145.097 421.812C144.745 422.185 144.569 422.628 144.569 423.14C144.569 423.471 144.734 423.785 145.065 424.084C145.406 424.372 145.854 424.607 146.409 424.788L148.329 425.412C149.321 425.732 150.089 426.159 150.633 426.692C151.187 427.225 151.465 427.972 151.465 428.932C151.465 430.148 151.065 431.097 150.265 431.78C149.475 432.452 148.345 432.788 146.873 432.788C145.625 432.788 144.585 432.495 143.753 431.908C142.931 431.321 142.361 430.543 142.041 429.572L143.225 428.788C143.534 429.503 144.003 430.073 144.633 430.5C145.273 430.916 146.019 431.124 146.873 431.124C147.598 431.124 148.185 430.937 148.633 430.564C149.081 430.18 149.305 429.716 149.305 429.172C149.305 428.724 149.118 428.34 148.745 428.02C148.371 427.7 147.854 427.423 147.193 427.188L145.385 426.564C144.403 426.223 143.683 425.807 143.225 425.316C142.766 424.825 142.537 424.137 142.537 423.252C142.537 422.601 142.702 422.009 143.033 421.476C143.363 420.943 143.843 420.516 144.473 420.196C145.113 419.876 145.875 419.716 146.761 419.716C147.763 419.716 148.654 419.881 149.433 420.212C150.211 420.543 150.782 420.953 151.145 421.444L150.697 424.02H149.641ZM154.173 432.724L153.901 421.796L153.117 421.908L152.797 420.5C153.095 420.436 153.49 420.372 153.981 420.308C154.482 420.233 155.026 420.164 155.613 420.1C156.199 420.025 156.775 419.967 157.341 419.924C157.906 419.881 158.407 419.86 158.845 419.86C159.655 419.86 160.402 420.025 161.085 420.356C161.767 420.687 162.317 421.151 162.733 421.748C163.149 422.345 163.357 423.039 163.357 423.828C163.357 424.799 163.149 425.609 162.733 426.26C162.317 426.9 161.762 427.38 161.069 427.7C160.386 428.02 159.623 428.18 158.781 428.18C158.429 428.18 158.029 428.137 157.581 428.052C157.133 427.967 156.658 427.812 156.157 427.588V432.5L154.173 432.724ZM156.157 426.068C156.391 426.153 156.653 426.233 156.941 426.308C157.229 426.372 157.506 426.42 157.773 426.452C158.05 426.484 158.269 426.5 158.429 426.5C159.207 426.5 159.847 426.292 160.349 425.876C160.861 425.449 161.117 424.799 161.117 423.924C161.117 423.433 160.999 423.012 160.765 422.66C160.53 422.308 160.226 422.036 159.853 421.844C159.479 421.652 159.085 421.556 158.669 421.556C158.295 421.556 157.879 421.561 157.421 421.572C156.962 421.572 156.541 421.588 156.157 421.62V426.068ZM171.77 432.708L170.922 430.148H165.45L164.33 432.708L162.666 432.5L167.274 419.7L169.754 420.308L169.418 421.06L174.218 432.484L171.77 432.708ZM168.57 423.012L166.074 428.708L170.298 428.244L168.57 423.012ZM185.603 430.18C185.347 430.639 184.979 431.071 184.499 431.476C184.03 431.871 183.481 432.191 182.851 432.436C182.233 432.671 181.566 432.788 180.851 432.788C179.689 432.788 178.67 432.527 177.795 432.004C176.921 431.471 176.238 430.713 175.747 429.732C175.257 428.74 175.011 427.567 175.011 426.212C175.011 424.911 175.257 423.775 175.747 422.804C176.238 421.823 176.921 421.065 177.795 420.532C178.67 419.988 179.683 419.716 180.835 419.716C181.838 419.716 182.729 419.881 183.507 420.212C184.286 420.543 184.857 420.953 185.219 421.444L184.771 424.34H183.715C183.545 423.199 183.246 422.441 182.819 422.068C182.563 421.844 182.27 421.684 181.939 421.588C181.619 421.481 181.214 421.428 180.723 421.428C180.073 421.428 179.481 421.604 178.947 421.956C178.425 422.297 178.009 422.825 177.699 423.54C177.39 424.244 177.235 425.135 177.235 426.212C177.235 427.193 177.406 428.041 177.747 428.756C178.089 429.46 178.547 430.004 179.123 430.388C179.699 430.761 180.339 430.948 181.043 430.948C181.545 430.948 182.025 430.863 182.483 430.692C182.942 430.511 183.358 430.281 183.731 430.004C184.115 429.716 184.43 429.412 184.675 429.092L185.603 430.18ZM187.628 432.5L187.34 421.86H186.652L186.332 420.468L195.74 419.86V421.86H189.676V425.428L194.94 424.948V427.06H189.676V430.82L196.044 430.34V432.5H187.628Z" fill="#FFA800"/>
<path d="M108.67 18.208L108.222 9.36L105.086 15.84L105.502 16.704L103.502 17.552L100.046 9.936L98.894 18.208L97.278 18L98.11 6.576L97.582 5.52L100.062 5.2L104.222 14L107.358 5.2L110.094 5.52L109.582 6.56L111.102 18L108.67 18.208ZM116.888 18.176C115.96 18.176 115.154 17.9893 114.472 17.616C113.8 17.232 113.277 16.6933 112.904 16C112.53 15.3067 112.344 14.496 112.344 13.568C112.344 12.6293 112.53 11.8133 112.904 11.12C113.277 10.4267 113.8 9.888 114.472 9.504C115.154 9.12 115.96 8.928 116.888 8.928C117.826 8.928 118.632 9.12 119.304 9.504C119.986 9.888 120.509 10.4267 120.872 11.12C121.234 11.8133 121.416 12.6293 121.416 13.568C121.416 14.496 121.234 15.3067 120.872 16C120.509 16.6933 119.986 17.232 119.304 17.616C118.632 17.9893 117.826 18.176 116.888 18.176ZM117.144 16.704C117.816 16.6507 118.338 16.368 118.712 15.856C119.085 15.3333 119.272 14.6667 119.272 13.856C119.272 13.7707 119.272 13.6907 119.272 13.616C119.272 13.5307 119.266 13.4453 119.256 13.36C119.181 12.4427 118.925 11.7227 118.488 11.2C118.061 10.6773 117.517 10.416 116.856 10.416C116.813 10.416 116.776 10.4213 116.744 10.432C116.712 10.432 116.674 10.432 116.632 10.432C115.981 10.4747 115.458 10.7573 115.064 11.28C114.68 11.8027 114.488 12.4747 114.488 13.296C114.488 13.3707 114.488 13.4507 114.488 13.536C114.488 13.6107 114.493 13.6907 114.504 13.776C114.578 14.6827 114.84 15.4027 115.288 15.936C115.736 16.4587 116.285 16.72 116.936 16.72C116.968 16.72 117 16.72 117.032 16.72C117.074 16.7093 117.112 16.704 117.144 16.704ZM125.886 18.208L122.062 9.296L124.494 8.864L126.798 15.68L129.31 8.848L130.926 9.36L127.758 18L125.886 18.208ZM139.865 16.432C139.556 16.848 139.225 17.184 138.873 17.44C138.532 17.696 138.137 17.8827 137.689 18C137.241 18.1173 136.692 18.176 136.041 18.176C135.113 18.176 134.318 17.9733 133.657 17.568C132.996 17.152 132.489 16.5973 132.137 15.904C131.785 15.2 131.609 14.416 131.609 13.552C131.609 12.6773 131.79 11.8933 132.153 11.2C132.516 10.496 133.022 9.94133 133.673 9.536C134.334 9.13067 135.102 8.928 135.977 8.928C136.83 8.928 137.561 9.12533 138.169 9.52C138.788 9.904 139.262 10.4587 139.593 11.184C139.924 11.8987 140.089 12.752 140.089 13.744V14.016H134.297L133.945 12.768L137.881 12.448C137.849 11.8827 137.689 11.424 137.401 11.072C137.124 10.7093 136.676 10.528 136.057 10.528C135.342 10.528 134.75 10.7947 134.281 11.328C133.822 11.8507 133.593 12.5973 133.593 13.568C133.593 14.2613 133.721 14.8373 133.977 15.296C134.244 15.744 134.574 16.08 134.969 16.304C135.374 16.5173 135.78 16.624 136.185 16.624C136.868 16.624 137.476 16.512 138.009 16.288C138.553 16.0533 138.98 15.7387 139.289 15.344L139.865 16.432Z" fill="#FEF9CB"/>
</svg>
