<?xml version="1.0" encoding="utf-8"?>
<!-- Generator: Adobe Illustrator 27.7.0, SVG Export Plug-In . SVG Version: 6.00 Build 0)  -->
<svg version="1.1" id="Layer_1" xmlns="http://www.w3.org/2000/svg" xmlns:xlink="http://www.w3.org/1999/xlink" x="0px" y="0px"
	 viewBox="0 0 32 64" enable-background="new 0 0 32 64" xml:space="preserve">
<path fill-rule="evenodd" clip-rule="evenodd" fill="#FEF9CB" d="M32,0v64H0V0H32z M16.4,31.9c-5.7,0-10.5,5-10.5,10.9
	c0,6,4.8,10.7,10.5,10.7c3.6,0,7-2.2,8.1-3.8v-4.9h2.7v-0.8h-10v0.8H21v6.7l-0.1,0.1c-0.9,0.5-2.5,1.1-4.4,1.1
	c-4.6,0-6.4-2.8-6.4-9.9c0-7.1,1.9-9.9,6.4-9.9c2,0,3.3,0.5,4.3,1.4c0.9,1,1.9,2.4,2.3,4.1h0.4v-5.8h-0.5l0,0.1
	c-0.1,0.2-0.2,0.3-0.3,0.4C22.6,33,22.5,33,22.2,33c-0.2,0-0.6-0.1-0.9-0.2c-0.4-0.1-0.8-0.2-1.2-0.4c-0.5-0.1-1-0.2-1.5-0.4
	c-0.2-0.1-0.5-0.1-0.8-0.1C17.4,32,16.9,31.9,16.4,31.9z M23.9,23.1H8v1.6h16V23.1z M23.9,8h-6v8H24v-1.6h-4.3v-1.7h3.8v-1.6h-3.8
	V9.5h4.3V8z M11.2,8H8v8h3.1l0.2,0c2.4-0.1,4-1.8,4-4v0l0-0.2C15.3,9.6,13.6,8,11.2,8z M11.2,9.6c1.4,0,2.4,1,2.4,2.4v0l0,0.1
	c-0.1,1.3-1,2.2-2.4,2.2H9.8V9.6H11.2z"/>
</svg>
