<?xml version="1.0" encoding="utf-8"?>
<!-- Generator: Adobe Illustrator 27.7.0, SVG Export Plug-In . SVG Version: 6.00 Build 0)  -->
<svg version="1.1" id="Layer_1" xmlns="http://www.w3.org/2000/svg" xmlns:xlink="http://www.w3.org/1999/xlink" x="0px" y="0px"
	 viewBox="0 0 185.4 57.1" enable-background="new 0 0 185.4 57.1" xml:space="preserve">
<path fill="#FEF9CB" d="M13.3,38.2h-0.8v5.6h0.8V38.2z M2.7,29.9h2.2V11c0-1.2-1-2.2-2.2-2.2c-1.2,0-2.2,1-2.2,2.2v16.7
	C0.6,28.9,1.5,29.9,2.7,29.9z M15.5,48h-0.9l-1.1,1.7c-0.1,0.1-0.2,0.3-0.2,0.3s-0.1-0.2-0.2-0.3L12.1,48h-1l1.7,2.7l-2,3h0.9
	l1.3-1.9c0.1-0.2,0.3-0.4,0.3-0.4s0.2,0.3,0.2,0.4l1.3,1.9h0.9l-2-3L15.5,48z M5,38.2H4.2v3.5c0,1.1-0.7,1.5-1.4,1.5
	c-0.7,0-1.4-0.4-1.4-1.5v-3.5H0.6v3.5c0,1.4,0.9,2.2,2.2,2.2C4,43.9,5,43.1,5,41.7V38.2z M8.6,51.5c0,1.1-0.7,1.5-1.4,1.5
	c-0.7,0-1.4-0.4-1.4-1.5V48H5v3.5c0,1.4,0.9,2.2,2.2,2.2c1.3,0,2.2-0.9,2.2-2.2V48H8.6V51.5z M1.4,48H0.6v5.6h2.9v-0.7H1.4V48z
	 M11,38.2h-0.8v4c0,0.1,0,0.2,0,0.2s-0.1-0.1-0.1-0.2l-2.9-4H6.5v5.6h0.8v-4.1c0-0.1,0-0.2,0-0.2s0.1,0.1,0.1,0.2l3,4.1H11V38.2z
	 M7,29.9c1.2,0,2.1-1.1,2.2-2.3c0,1.1,0.2,2.3,1.3,2.3V11c0-1.2-1-2.2-2.2-2.2c-1.2,0-2.2,1-2.2,2.2v18.8h0H7z M155.4,7h-5.5v5.5
	h5.5V7z M18.2,38.2l-1.4,4.1c0,0.1,0,0.2,0,0.2s0-0.1,0-0.2l-1.4-4.1h-0.8l2,5.6h0.5l2-5.6H18.2z M165,17.9h-5.5v5.5h5.5V17.9z
	 M168.6,9.9h-5.5v5.5h5.5V9.9z M28.3,39.9c0-0.9-0.7-1.7-1.7-1.7h-1.8v5.6h0.8v-2.6l2.3,2.6h1l-2.1-2.4
	C27.6,41.5,28.3,40.8,28.3,39.9z M25.5,40.9v-1.9h0.9c0.7,0,1.1,0.5,1.1,0.9c0,0.6-0.4,1-1.1,1H25.5z M32.7,50.8
	c0.4-0.2,0.6-0.6,0.6-1.3c0-0.9-0.7-1.5-1.6-1.5h-1.5v5.6h1.7c1.2,0,1.7-0.8,1.7-1.5C33.6,51.4,33.1,50.9,32.7,50.8z M31,48.7h0.6
	c0.6,0,1,0.3,1,0.8c0,0.5-0.2,1-1,1H31V48.7z M31.8,52.9H31v-1.7h0.9c0.6,0,0.9,0.3,0.9,0.8C32.8,52.6,32.5,52.9,31.8,52.9z
	 M31.3,43.2c-0.4,0-0.9-0.1-1.2-0.4l-0.4,0.6c0.5,0.4,1.1,0.6,1.7,0.6c0.9,0,1.7-0.6,1.7-1.6c0-0.9-0.7-1.4-1.3-1.7
	c-0.7-0.3-1.2-0.6-1.2-1.2c0-0.4,0.4-0.7,0.8-0.7c0.5,0,0.8,0.1,1.1,0.4l0.4-0.6c-0.4-0.3-1-0.5-1.5-0.5c-1,0-1.6,0.6-1.6,1.5
	c0,1.1,0.8,1.4,1.6,1.8c0.5,0.3,0.9,0.5,0.9,1C32.2,42.9,31.8,43.2,31.3,43.2z M159.7,35.7h5.5v-5.5h-5.5V35.7z M18,51.3h2.3v-0.7
	H18v-1.8h2.4V48h-3.2v5.6h3.3v-0.7H18V51.3z M23.2,38.9v-0.7h-3.2v5.6h3.3v-0.7h-2.5v-1.7h2.3v-0.7h-2.3v-1.8H23.2z M25.3,50.8
	L23.2,48h-0.7v5.6h0.8v-4.1c0-0.1,0-0.2,0-0.2s0,0.1,0.1,0.1l1.8,2.3h0.3l1.8-2.4c0,0,0.1-0.1,0.1-0.1s0,0.1,0,0.2v4.2h0.8V48h-0.7
	L25.3,50.8z M141.6,9.3h-5.5v5.5h5.5V9.3z M58.7,29.9C58.7,29.9,58.7,29.9,58.7,29.9L58.7,29.9L58.7,29.9z M98.7,43.7v3.5h1.8v-0.5
	h-1.3v-3H98.7z M55.3,29.9c1.2,0,2.1-1.1,2.2-2.3c0,1.1,0.2,2.3,1.3,2.3V11c0-1.2-1-2.2-2.2-2.2c-1.2,0-2.2,1-2.2,2.2v18.8h0H55.3z
	 M109.5,44.1v-0.5h-1.9v3.5h2v-0.5H108v-1h1.4v-0.5H108v-1.1H109.5z M51.1,29.9h2.2V11c0-1.2-1-2.2-2.2-2.2c-1.2,0-2.2,1-2.2,2.2
	v16.7C48.9,28.9,49.9,29.9,51.1,29.9z M116.2,44.6c0-0.1,0-0.3-0.1-0.4c0-0.1-0.1-0.2-0.2-0.3c-0.1-0.1-0.2-0.1-0.3-0.2
	c-0.1,0-0.3-0.1-0.4-0.1h-0.9v3.5h1c0.2,0,0.4,0,0.5-0.1s0.2-0.1,0.3-0.2c0.1-0.1,0.1-0.2,0.2-0.3c0-0.1,0.1-0.2,0.1-0.3
	c0-0.1,0-0.2-0.1-0.3c0-0.1-0.1-0.2-0.1-0.2c-0.1-0.1-0.1-0.1-0.2-0.2c-0.1,0-0.1-0.1-0.2-0.1c0.1-0.1,0.2-0.2,0.3-0.3
	C116.1,44.9,116.2,44.8,116.2,44.6z M114.7,44.1h0.4c0.2,0,0.3,0,0.4,0.1c0.1,0.1,0.1,0.2,0.1,0.4c0,0.1,0,0.1,0,0.2
	c0,0.1,0,0.1-0.1,0.2c0,0.1-0.1,0.1-0.2,0.1c-0.1,0-0.2,0.1-0.3,0.1h-0.3V44.1z M115.8,46.2c0,0.2-0.1,0.3-0.2,0.4
	c-0.1,0.1-0.3,0.1-0.5,0.1h-0.5v-1h0.6c0.2,0,0.3,0,0.4,0.1S115.8,46,115.8,46.2z M142.7,47.2v-3h0.7v-0.5h-1.9v0.5h0.7v3H142.7z
	 M152.6,44.1v-0.5h-1.7v3.5h0.5v-1.5h1.2v-0.5h-1.2v-1.1H152.6z M113.1,47.2h0.5v-3.5h-0.4l-1.3,1.7l-1.3-1.7h-0.4v3.5h0.5v-2.5
	c0,0,0-0.1,0-0.1c0,0,0,0.1,0,0.1l1.1,1.4h0.2l1.1-1.5c0,0,0,0,0-0.1c0,0.1,0,0.1,0,0.1V47.2z M43.8,29.9c1.2,0,2.2-1,2.2-2.2V3.5
	h-0.2c-0.4,0.7-1.1,1.2-1.9,1.2c-0.8,0-1.6-0.5-1.9-1.2h-0.2v24.2C41.6,28.9,42.6,29.9,43.8,29.9z M153.7,18.5H98.6V40h55.1V18.5z
	 M109.3,37.5c-3.6,0-7.3-3-7.3-7.7c0-4.3,3.1-7.7,7.4-7.7c2.7,0,4.3,0.9,5.5,2.3l-1.5,1.3c-1-1.1-2.3-1.7-4-1.7
	c-2.9,0-5.3,2.2-5.3,5.7c0,3.8,2.9,5.7,5.2,5.7c1.4,0,3.1-0.6,4.4-2.1l1.5,1.3C114,36.3,111.9,37.5,109.3,37.5z M122.3,30.4h-5.8
	l3.8-4.8c0.5-0.6,0.6-1.1,0.6-1.4c0-1.2-1-1.6-1.6-1.6c-1.2,0-1.6,0.8-1.6,1.7h-1.2c0-1.9,1.2-2.8,2.8-2.8c1.4,0,2.8,0.8,2.8,2.7
	c0,0.6-0.2,1.3-0.8,2l-2.5,3.1h3.5V30.4z M128.1,37.3h-3.6V22.3h3.8c5.1,0,8,3.4,8,7.4C136.2,33.9,133.2,37.3,128.1,37.3z
	 M149.9,37.3h-2v-6.4h-7.2v6.4h-2V22.3h2v6.6h7.2v-6.6h2V37.3z M128.2,3.5h-5.5v5.5h5.5V3.5z M13.4,8.9L13.4,8.9
	C13.4,8.9,13.4,8.9,13.4,8.9L13.4,8.9z M37.8,47.9c-1.6,0-2.9,1.3-2.9,2.9c0,1.7,1.3,2.9,2.9,2.9c1.6,0,2.9-1.3,2.9-2.9
	C40.7,49.2,39.5,47.9,37.8,47.9z M37.8,53c-1.1,0-2.1-0.9-2.1-2.2c0-1.2,0.8-2.1,2.1-2.1c1.2,0,2.1,0.9,2.1,2.1
	C39.9,52.2,38.9,53,37.8,53z M15.5,29.9c1.2,0,2.2-1,2.2-2.2V8.9h0h-0.9c-1.2,0-2.1,1.1-2.2,2.3c0-1.1-0.2-2.3-1.3-2.3v18.8
	C13.4,28.9,14.3,29.9,15.5,29.9z M10.4,29.9C10.4,29.9,10.4,29.9,10.4,29.9L10.4,29.9L10.4,29.9z M137.6,44.1v-0.5h-1.9v3.5h2v-0.5
	h-1.5v-1h1.4v-0.5h-1.4v-1.1H137.6z M28.3,10.1c-0.8,0-1.6-0.5-1.9-1.2h-0.2v18.8c0,1.2,1,2.2,2.2,2.2c1.2,0,2.2-1,2.2-2.2V8.9h-0.2
	C29.8,9.6,29.1,10.1,28.3,10.1z M21,29.9c1.2,0,2.2-1,2.2-2.2V11c0-1.2-1-2.2-2.2-2.2h-2.2v18.8C18.8,28.9,19.8,29.9,21,29.9z
	 M36.1,29.9c1.2,0,2.2-1,2.2-2.2c0-1.2-1-2.2-2.2-2.2c-1.2,0-2.2,1-2.2,2.2C33.9,28.9,34.9,29.9,36.1,29.9z M28.3,7.9
	c1.2,0,2.2-1,2.2-2.2c0-1.2-1-2.2-2.2-2.2c-1.2,0-2.2,1-2.2,2.2C26.1,6.9,27.1,7.9,28.3,7.9z M128.2,24.2h-1.7v11.2h1.3
	c4.4,0,6.3-2.9,6.3-5.6C134.1,26.7,131.8,24.2,128.2,24.2z M132.9,44.4c0.1-0.1,0.2-0.2,0.4-0.3c0.2-0.1,0.3-0.1,0.5-0.1
	c0.2,0,0.4,0,0.5,0.1c0.2,0.1,0.3,0.2,0.4,0.3l0.3-0.3c-0.1-0.2-0.3-0.3-0.5-0.4c-0.2-0.1-0.5-0.1-0.8-0.1c-0.2,0-0.5,0-0.7,0.1
	c-0.2,0.1-0.4,0.2-0.5,0.4s-0.3,0.4-0.4,0.6c-0.1,0.2-0.1,0.5-0.1,0.7c0,0.3,0,0.5,0.1,0.7c0.1,0.2,0.2,0.4,0.4,0.6
	c0.2,0.2,0.3,0.3,0.5,0.4c0.2,0.1,0.4,0.1,0.6,0.1c0.3,0,0.6-0.1,0.8-0.2c0.2-0.1,0.4-0.3,0.5-0.5l-0.3-0.3
	c-0.1,0.2-0.3,0.3-0.5,0.4c-0.2,0.1-0.4,0.1-0.5,0.1c-0.1,0-0.3,0-0.4-0.1c-0.1-0.1-0.3-0.1-0.4-0.2c-0.1-0.1-0.2-0.3-0.3-0.4
	s-0.1-0.4-0.1-0.6c0-0.2,0-0.4,0.1-0.5C132.7,44.7,132.8,44.6,132.9,44.4z M146.7,50.8c-0.2-0.2-0.3-0.3-0.6-0.4
	c-0.2-0.1-0.5-0.1-0.8-0.1h-0.9v3.5h0.8c0.3,0,0.6,0,0.8-0.1c0.2-0.1,0.4-0.2,0.6-0.4c0.2-0.2,0.3-0.3,0.4-0.6
	c0.1-0.2,0.1-0.4,0.1-0.7c0-0.2,0-0.5-0.1-0.7C147,51.1,146.8,50.9,146.7,50.8z M146.6,52.5c-0.1,0.2-0.1,0.3-0.3,0.4
	c-0.1,0.1-0.3,0.2-0.5,0.3c-0.2,0.1-0.4,0.1-0.7,0.1h-0.3v-2.6h0.4c0.2,0,0.4,0,0.6,0.1c0.2,0.1,0.3,0.2,0.4,0.3
	c0.1,0.1,0.2,0.3,0.3,0.4c0.1,0.2,0.1,0.3,0.1,0.5C146.7,52.2,146.6,52.3,146.6,52.5z M152.4,53.8h0.5v-3.5h-0.5V53.8z M129,50.3
	l-1.3,3.5h0.5l0.4-1.1h1.1l0.4,1.1h0.5l-1.3-3.5H129z M128.7,52.2l0.4-1c0,0,0,0,0-0.1c0,0,0,0.1,0,0.1l0.4,1H128.7z M151.4,50.8
	c-0.2-0.2-0.3-0.3-0.6-0.4c-0.2-0.1-0.5-0.1-0.8-0.1h-0.9v3.5h0.8c0.3,0,0.6,0,0.8-0.1c0.2-0.1,0.4-0.2,0.6-0.4
	c0.2-0.2,0.3-0.3,0.4-0.6c0.1-0.2,0.1-0.4,0.1-0.7c0-0.2,0-0.5-0.1-0.7C151.7,51.1,151.5,50.9,151.4,50.8z M151.3,52.5
	c-0.1,0.2-0.1,0.3-0.3,0.4c-0.1,0.1-0.3,0.2-0.5,0.3c-0.2,0.1-0.4,0.1-0.7,0.1h-0.3v-2.6h0.4c0.2,0,0.4,0,0.6,0.1
	c0.2,0.1,0.3,0.2,0.4,0.3c0.1,0.1,0.2,0.3,0.3,0.4c0.1,0.2,0.1,0.3,0.1,0.5C151.4,52.2,151.3,52.3,151.3,52.5z M154.7,47.2
	c0.2,0,0.5,0,0.7-0.1c0.2-0.1,0.4-0.2,0.6-0.4c0.2-0.2,0.3-0.4,0.4-0.6c0.1-0.2,0.1-0.5,0.1-0.7c0-0.3,0-0.5-0.1-0.7
	c-0.1-0.2-0.2-0.4-0.4-0.6c-0.2-0.2-0.3-0.3-0.6-0.4c-0.2-0.1-0.5-0.1-0.7-0.1c-0.2,0-0.5,0-0.7,0.1c-0.2,0.1-0.4,0.2-0.6,0.4
	c-0.2,0.2-0.3,0.3-0.4,0.6c-0.1,0.2-0.1,0.5-0.1,0.7c0,0.3,0,0.5,0.1,0.7c0.1,0.2,0.2,0.4,0.4,0.6c0.2,0.2,0.3,0.3,0.6,0.4
	C154.2,47.2,154.5,47.2,154.7,47.2z M153.5,45.9c-0.1-0.2-0.1-0.3-0.1-0.5c0-0.2,0-0.4,0.1-0.5c0.1-0.2,0.1-0.3,0.3-0.4
	c0.1-0.1,0.2-0.2,0.4-0.3c0.2-0.1,0.3-0.1,0.5-0.1c0.2,0,0.4,0,0.5,0.1c0.2,0.1,0.3,0.2,0.4,0.3c0.1,0.1,0.2,0.3,0.3,0.4
	c0.1,0.2,0.1,0.3,0.1,0.5c0,0.2,0,0.4-0.1,0.6c-0.1,0.2-0.2,0.3-0.3,0.4c-0.1,0.1-0.2,0.2-0.4,0.3c-0.2,0.1-0.3,0.1-0.5,0.1
	c-0.2,0-0.3,0-0.5-0.1c-0.2-0.1-0.3-0.2-0.4-0.3C153.7,46.2,153.6,46.1,153.5,45.9z M155.2,52.6h1c0,0.1-0.1,0.2-0.1,0.3
	c-0.1,0.1-0.1,0.2-0.2,0.2c-0.1,0.1-0.2,0.1-0.3,0.1c-0.1,0-0.2,0-0.4,0c-0.2,0-0.3,0-0.5-0.1c-0.2-0.1-0.3-0.2-0.4-0.3
	c-0.1-0.1-0.2-0.3-0.3-0.4c-0.1-0.2-0.1-0.3-0.1-0.5c0-0.2,0-0.4,0.1-0.5c0.1-0.2,0.2-0.3,0.3-0.4c0.1-0.1,0.2-0.2,0.4-0.3
	c0.2-0.1,0.3-0.1,0.5-0.1c0.2,0,0.4,0,0.5,0.1s0.3,0.1,0.5,0.3l0.3-0.4c-0.2-0.1-0.3-0.3-0.5-0.3s-0.4-0.1-0.7-0.1
	c-0.2,0-0.5,0-0.7,0.1c-0.2,0.1-0.4,0.2-0.6,0.4c-0.2,0.2-0.3,0.3-0.4,0.6c-0.1,0.2-0.1,0.5-0.1,0.7c0,0.3,0,0.5,0.2,0.7
	s0.2,0.4,0.4,0.6c0.2,0.2,0.4,0.3,0.6,0.4c0.2,0.1,0.4,0.1,0.6,0.1c0.2,0,0.4,0,0.6-0.1c0.2-0.1,0.4-0.2,0.5-0.3
	c0.1-0.1,0.3-0.3,0.3-0.5c0.1-0.2,0.1-0.4,0.1-0.7h-1.6V52.6z M147.3,45.7h1.4v-0.5h-1.4v-1.1h1.5v-0.5h-1.9v3.5h2v-0.5h-1.5V45.7z
	 M138.9,50.3l-1.3,3.5h0.5l0.4-1.1h1.1l0.4,1.1h0.5l-1.3-3.5H138.9z M138.7,52.2l0.4-1c0,0,0,0,0-0.1c0,0,0,0.1,0,0.1l0.4,1H138.7z
	 M135,51.6c0,0,0,0.1-0.1,0.1c0-0.1,0-0.1-0.1-0.1l-0.8-1.3h-0.5l1.2,1.9v1.6h0.5v-1.6l1.2-1.9h-0.5L135,51.6z M132.7,52.2
	c0.1-0.1,0.2-0.1,0.3-0.2c0.1-0.1,0.2-0.2,0.2-0.3c0.1-0.1,0.1-0.3,0.1-0.4c0-0.1,0-0.3-0.1-0.4c-0.1-0.1-0.1-0.2-0.2-0.3
	c-0.1-0.1-0.2-0.2-0.3-0.2c-0.1-0.1-0.3-0.1-0.4-0.1h-1.1v3.5h0.5v-1.6l1.4,1.6h0.6l-1.3-1.5C132.4,52.3,132.5,52.3,132.7,52.2z
	 M131.6,51.9v-1.2h0.6c0.1,0,0.2,0,0.3,0.1c0.1,0,0.2,0.1,0.2,0.1c0.1,0.1,0.1,0.1,0.1,0.2s0,0.1,0,0.2c0,0.2-0.1,0.3-0.2,0.5
	c-0.1,0.1-0.3,0.2-0.5,0.2H131.6z M140.5,46.1c0,0,0,0.1,0,0.1C140.5,46.2,140.5,46.2,140.5,46.1l-1.8-2.5h-0.4v3.5h0.5v-2.5
	c0,0,0-0.1,0-0.1c0,0,0.1,0.1,0.1,0.1l1.8,2.5h0.4v-3.5h-0.5V46.1z M35.1,38.2h-0.8v5.6h0.8V38.2z M143.3,52.7c0,0,0,0.1,0,0.1
	C143.2,52.8,143.2,52.8,143.3,52.7l-1.8-2.5H141v3.5h0.5v-2.5c0,0,0-0.1,0-0.1c0,0,0.1,0.1,0.1,0.1l1.8,2.5h0.4v-3.5h-0.5V52.7z
	 M157.5,45.5l1.4,1.6h0.6l-1.3-1.5c0.1,0,0.3,0,0.4-0.1c0.1-0.1,0.2-0.1,0.3-0.2c0.1-0.1,0.2-0.2,0.2-0.3c0.1-0.1,0.1-0.3,0.1-0.4
	c0-0.1,0-0.3-0.1-0.4c-0.1-0.1-0.1-0.2-0.2-0.3c-0.1-0.1-0.2-0.2-0.3-0.2s-0.3-0.1-0.4-0.1H157v3.5h0.5V45.5z M157.5,44.1h0.6
	c0.1,0,0.2,0,0.3,0.1c0.1,0,0.2,0.1,0.2,0.1c0.1,0.1,0.1,0.1,0.1,0.2s0,0.1,0,0.2c0,0.2-0.1,0.3-0.2,0.5c-0.1,0.1-0.3,0.2-0.5,0.2
	h-0.5V44.1z M179.1,50.7c-0.2-0.2-0.3-0.3-0.6-0.4c-0.2-0.1-0.5-0.1-0.7-0.1c-0.2,0-0.5,0-0.7,0.1c-0.2,0.1-0.4,0.2-0.6,0.4
	c-0.2,0.2-0.3,0.3-0.4,0.6c-0.1,0.2-0.1,0.5-0.1,0.7c0,0.3,0,0.5,0.1,0.7s0.2,0.4,0.4,0.6c0.2,0.2,0.4,0.3,0.6,0.4
	c0.2,0.1,0.4,0.1,0.7,0.1c0.2,0,0.5,0,0.7-0.1c0.2-0.1,0.4-0.2,0.6-0.4c0.2-0.2,0.3-0.4,0.4-0.6c0.1-0.2,0.1-0.5,0.1-0.7
	c0-0.3,0-0.5-0.1-0.7C179.3,51.1,179.2,50.9,179.1,50.7z M178.9,52.6c-0.1,0.2-0.2,0.3-0.3,0.4c-0.1,0.1-0.3,0.2-0.4,0.3
	c-0.2,0.1-0.3,0.1-0.5,0.1s-0.3,0-0.5-0.1c-0.2-0.1-0.3-0.2-0.4-0.3c-0.1-0.1-0.2-0.3-0.3-0.4c-0.1-0.2-0.1-0.3-0.1-0.5
	c0-0.2,0-0.4,0.1-0.5c0.1-0.2,0.1-0.3,0.3-0.4c0.1-0.1,0.2-0.2,0.4-0.3c0.2-0.1,0.3-0.1,0.5-0.1c0.2,0,0.4,0,0.5,0.1
	c0.2,0.1,0.3,0.2,0.4,0.3c0.1,0.1,0.2,0.3,0.3,0.4c0.1,0.2,0.1,0.3,0.1,0.5C179.1,52.2,179,52.4,178.9,52.6z M173.9,50.7h0.7v3h0.5
	v-3h0.7v-0.5h-1.9V50.7z M168.4,32h5.5v-5.5h-5.5V32z M184.8,50.3l-0.8,1.3c0,0,0,0.1-0.1,0.1c0-0.1,0-0.1-0.1-0.1l-0.8-1.3h-0.5
	l1.2,1.9v1.6h0.5v-1.6l1.2-1.9H184.8z M181.7,52.2c0.1-0.1,0.2-0.1,0.3-0.2c0.1-0.1,0.2-0.2,0.2-0.3c0.1-0.1,0.1-0.3,0.1-0.4
	c0-0.1,0-0.3-0.1-0.4c0-0.1-0.1-0.2-0.2-0.3c-0.1-0.1-0.2-0.2-0.3-0.2c-0.1-0.1-0.3-0.1-0.4-0.1h-1.1v3.5h0.5v-1.6l1.4,1.6h0.6
	l-1.3-1.5C181.4,52.3,181.6,52.3,181.7,52.2z M180.6,51.9v-1.2h0.6c0.1,0,0.2,0,0.3,0.1c0.1,0,0.2,0.1,0.2,0.1
	c0.1,0.1,0.1,0.1,0.1,0.2c0,0.1,0,0.1,0,0.2c0,0.2-0.1,0.3-0.2,0.5c-0.1,0.1-0.3,0.2-0.5,0.2H180.6z M173.4,52.2
	c-0.1-0.1-0.2-0.2-0.3-0.2c-0.1-0.1-0.2-0.1-0.3-0.2c-0.1-0.1-0.2-0.1-0.3-0.2c-0.1,0-0.2-0.1-0.2-0.1c-0.1-0.1-0.1-0.1-0.2-0.2
	c0-0.1-0.1-0.1-0.1-0.2c0-0.1,0-0.2,0.1-0.3c0.1-0.1,0.2-0.1,0.4-0.1c0.1,0,0.3,0,0.4,0c0.1,0,0.2,0.1,0.3,0.2l0.3-0.4
	c-0.1-0.1-0.3-0.2-0.4-0.2c-0.2-0.1-0.3-0.1-0.5-0.1c-0.2,0-0.3,0-0.4,0.1c-0.1,0-0.2,0.1-0.3,0.2c-0.1,0.1-0.2,0.2-0.2,0.3
	c0,0.1-0.1,0.2-0.1,0.4c0,0.2,0,0.3,0.1,0.4c0.1,0.1,0.1,0.2,0.2,0.3c0.1,0.1,0.2,0.2,0.3,0.2c0.1,0.1,0.2,0.1,0.4,0.2
	c0.1,0,0.1,0.1,0.2,0.1c0.1,0,0.1,0.1,0.2,0.1c0.1,0.1,0.1,0.1,0.1,0.2c0,0.1,0,0.1,0,0.2c0,0.2-0.1,0.3-0.2,0.4
	c-0.1,0.1-0.2,0.1-0.4,0.1c-0.1,0-0.1,0-0.2,0c-0.1,0-0.1,0-0.2,0c-0.1,0-0.1,0-0.2-0.1c-0.1,0-0.1-0.1-0.2-0.1l-0.3,0.4
	c0.2,0.1,0.3,0.2,0.5,0.3c0.2,0.1,0.3,0.1,0.5,0.1c0.1,0,0.3,0,0.4-0.1c0.1,0,0.2-0.1,0.3-0.2c0.1-0.1,0.2-0.2,0.2-0.3
	c0.1-0.1,0.1-0.3,0.1-0.4c0-0.1,0-0.3-0.1-0.4C173.5,52.3,173.5,52.3,173.4,52.2z M170.6,53.8h0.5v-3.5h-0.5V53.8z M160.2,50.3h-1.9
	v0.5h0.7v3h0.5v-3h0.7V50.3z M161.5,50.3l-1.3,3.5h0.5l0.4-1.1h1.1l0.4,1.1h0.5l-1.3-3.5H161.5z M161.2,52.2l0.4-1c0,0,0,0,0-0.1
	c0,0,0,0.1,0,0.1l0.4,1H161.2z M169.4,51.8h-1.7v-1.5h-0.5v3.5h0.5v-1.5h1.7v1.5h0.5v-3.5h-0.5V51.8z M164,50.3h-0.5v3.5h1.8v-0.5
	H164V50.3z M157.3,53.8h0.5v-3.5h-0.5V53.8z M146.4,47.2l-1.3-1.5c0.1,0,0.3,0,0.4-0.1c0.1-0.1,0.2-0.1,0.3-0.2
	c0.1-0.1,0.2-0.2,0.2-0.3c0.1-0.1,0.1-0.3,0.1-0.4c0-0.1,0-0.3-0.1-0.4c0-0.1-0.1-0.2-0.2-0.3c-0.1-0.1-0.2-0.2-0.3-0.2
	c-0.1-0.1-0.3-0.1-0.4-0.1h-1.1v3.5h0.5v-1.6l1.4,1.6H146.4z M144.4,45.3v-1.2h0.6c0.1,0,0.2,0,0.3,0.1c0.1,0,0.2,0.1,0.2,0.1
	c0.1,0.1,0.1,0.1,0.1,0.2c0,0.1,0,0.1,0,0.2c0,0.2-0.1,0.3-0.2,0.5c-0.1,0.1-0.3,0.2-0.5,0.2H144.4z M0,34.4h59.3v-0.8H0V34.4z
	 M54.3,38.2v3.5c0,1.4,0.9,2.2,2.2,2.2c1.3,0,2.2-0.9,2.2-2.2v-3.5H58v3.5c0,1.1-0.7,1.5-1.4,1.5c-0.7,0-1.4-0.4-1.4-1.5v-3.5H54.3z
	 M50,38.2h-1.4v5.6h1.4c1.9,0,3.1-1.3,3.1-2.8C53,39.5,51.9,38.2,50,38.2z M49.8,43.1h-0.5v-4.3H50c1.4,0,2.2,1,2.2,2.1
	C52.2,42.1,51.5,43.1,49.8,43.1z M56.2,51.9h1.7c-0.2,0.7-0.8,1.1-1.7,1.1c-1.1,0-2.1-1-2.1-2.2c0-1.3,0.9-2.2,2.1-2.2
	c0.7,0,1.1,0.2,1.6,0.6l0.5-0.6c-0.5-0.5-1.2-0.8-2.1-0.8c-1.6,0-2.9,1.2-2.9,2.9c0,1.7,1.4,2.9,2.9,2.9c1.4,0,2.6-1.1,2.6-2.6h-2.6
	V51.9z M78.8,57.1h0.9V0h-0.9V57.1z M102.8,47.1c0.2-0.1,0.3-0.2,0.4-0.3c0.1-0.1,0.2-0.3,0.3-0.4c0.1-0.2,0.1-0.4,0.1-0.6v-2.2
	h-0.5v2.2c0,0.2,0,0.3-0.1,0.4c0,0.1-0.1,0.2-0.2,0.3c-0.1,0.1-0.2,0.1-0.3,0.2c-0.1,0-0.2,0-0.3,0c-0.1,0-0.2,0-0.3,0
	c-0.1,0-0.2-0.1-0.3-0.2c-0.1-0.1-0.1-0.2-0.2-0.3c0-0.1-0.1-0.3-0.1-0.4v-2.2h-0.5v2.2c0,0.2,0,0.4,0.1,0.6
	c0.1,0.2,0.2,0.3,0.3,0.4s0.3,0.2,0.4,0.3c0.2,0.1,0.3,0.1,0.5,0.1C102.5,47.2,102.6,47.2,102.8,47.1z M100.8,53.2
	c-0.2,0.1-0.4,0.1-0.5,0.1c-0.1,0-0.3,0-0.4-0.1c-0.1-0.1-0.3-0.1-0.4-0.2c-0.1-0.1-0.2-0.3-0.3-0.4C99.1,52.4,99,52.2,99,52
	c0-0.2,0-0.4,0.1-0.5c0.1-0.2,0.2-0.3,0.3-0.4c0.1-0.1,0.2-0.2,0.4-0.3c0.1-0.1,0.3-0.1,0.5-0.1c0.2,0,0.4,0,0.5,0.1
	c0.2,0.1,0.3,0.2,0.4,0.3l0.3-0.3c-0.1-0.2-0.3-0.3-0.5-0.4c-0.2-0.1-0.5-0.1-0.8-0.1c-0.2,0-0.5,0-0.7,0.1
	c-0.2,0.1-0.4,0.2-0.5,0.4c-0.2,0.2-0.3,0.4-0.4,0.6c-0.1,0.2-0.1,0.5-0.1,0.7c0,0.3,0,0.5,0.1,0.7c0.1,0.2,0.2,0.4,0.4,0.6
	c0.2,0.2,0.3,0.3,0.5,0.4c0.2,0.1,0.4,0.1,0.6,0.1c0.3,0,0.6-0.1,0.8-0.2c0.2-0.1,0.4-0.3,0.5-0.5l-0.3-0.3
	C101.1,53,100.9,53.2,100.8,53.2z M40.8,43.8h3.3v-0.7h-2.5v-1.7h2.3v-0.7h-2.3v-1.8h2.4v-0.7h-3.2V43.8z M52,49.7
	c0-0.9-0.7-1.7-1.7-1.7h-1.8v5.6h0.8V51l2.3,2.6h1l-2.1-2.4C51.2,51.3,52,50.6,52,49.7z M49.2,50.7v-1.9h0.9c0.7,0,1.1,0.5,1.1,0.9
	c0,0.6-0.4,1-1.1,1H49.2z M128.7,47.2c0.2,0,0.4,0,0.6-0.1c0.2-0.1,0.4-0.2,0.5-0.3c0.1-0.1,0.3-0.3,0.3-0.5
	c0.1-0.2,0.1-0.4,0.1-0.7h-1.6V46h1c0,0.1-0.1,0.2-0.1,0.3c-0.1,0.1-0.1,0.2-0.2,0.2s-0.2,0.1-0.3,0.1c-0.1,0-0.2,0-0.3,0
	c-0.2,0-0.3,0-0.5-0.1c-0.2-0.1-0.3-0.2-0.4-0.3c-0.1-0.1-0.2-0.3-0.3-0.4s-0.1-0.3-0.1-0.5c0-0.2,0-0.4,0.1-0.5
	c0.1-0.2,0.2-0.3,0.3-0.4c0.1-0.1,0.2-0.2,0.4-0.3c0.2-0.1,0.3-0.1,0.5-0.1c0.2,0,0.4,0,0.5,0.1s0.3,0.1,0.5,0.3l0.3-0.4
	c-0.2-0.1-0.4-0.3-0.6-0.3c-0.2-0.1-0.4-0.1-0.7-0.1c-0.2,0-0.5,0-0.7,0.1c-0.2,0.1-0.4,0.2-0.6,0.4c-0.2,0.2-0.3,0.3-0.4,0.6
	c-0.1,0.2-0.1,0.5-0.1,0.7c0,0.3,0.1,0.5,0.2,0.7c0.1,0.2,0.2,0.4,0.4,0.6c0.2,0.2,0.3,0.3,0.6,0.4
	C128.3,47.2,128.5,47.2,128.7,47.2z M42.6,36.6l-0.7,1.1h0.7l0.7-1.1H42.6z M45.9,51.5c0,1.1-0.7,1.5-1.4,1.5
	c-0.7,0-1.4-0.4-1.4-1.5V48h-0.8v3.5c0,1.4,0.9,2.2,2.2,2.2c1.3,0,2.2-0.9,2.2-2.2V48h-0.8V51.5z M38.3,43.8v-4.9h1.2v-0.7h-3.1v0.7
	h1.2v4.9H38.3z M119.2,47.1c0.2-0.1,0.4-0.2,0.6-0.4c0.2-0.2,0.3-0.4,0.4-0.6c0.1-0.2,0.1-0.5,0.1-0.7c0-0.3,0-0.5-0.1-0.7
	c-0.1-0.2-0.2-0.4-0.4-0.6c-0.2-0.2-0.3-0.3-0.6-0.4c-0.2-0.1-0.5-0.1-0.7-0.1c-0.2,0-0.5,0-0.7,0.1c-0.2,0.1-0.4,0.2-0.6,0.4
	c-0.2,0.2-0.3,0.3-0.4,0.6c-0.1,0.2-0.1,0.5-0.1,0.7c0,0.3,0,0.5,0.1,0.7c0.1,0.2,0.2,0.4,0.4,0.6c0.2,0.2,0.3,0.3,0.6,0.4
	c0.2,0.1,0.4,0.1,0.7,0.1C118.8,47.2,119,47.2,119.2,47.1z M117.6,46.4c-0.1-0.1-0.2-0.3-0.3-0.4c-0.1-0.2-0.1-0.3-0.1-0.5
	c0-0.2,0-0.4,0.1-0.5c0.1-0.2,0.1-0.3,0.3-0.4c0.1-0.1,0.2-0.2,0.4-0.3c0.2-0.1,0.3-0.1,0.5-0.1c0.2,0,0.4,0,0.5,0.1
	c0.2,0.1,0.3,0.2,0.4,0.3c0.1,0.1,0.2,0.3,0.3,0.4c0.1,0.2,0.1,0.3,0.1,0.5c0,0.2,0,0.4-0.1,0.6c-0.1,0.2-0.2,0.3-0.3,0.4
	c-0.1,0.1-0.3,0.2-0.4,0.3c-0.2,0.1-0.3,0.1-0.5,0.1c-0.2,0-0.3,0-0.5-0.1C117.9,46.6,117.7,46.5,117.6,46.4z M121.2,46.8
	c0.1,0.1,0.3,0.2,0.4,0.3c0.2,0.1,0.3,0.1,0.5,0.1c0.2,0,0.4,0,0.5-0.1c0.2-0.1,0.3-0.2,0.4-0.3c0.1-0.1,0.2-0.3,0.3-0.4
	c0.1-0.2,0.1-0.4,0.1-0.6v-2.2H123v2.2c0,0.2,0,0.3-0.1,0.4c-0.1,0.1-0.1,0.2-0.2,0.3c-0.1,0.1-0.2,0.1-0.3,0.2c-0.1,0-0.2,0-0.3,0
	s-0.2,0-0.3,0c-0.1,0-0.2-0.1-0.3-0.2c-0.1-0.1-0.1-0.2-0.2-0.3c0-0.1-0.1-0.3-0.1-0.4v-2.2h-0.5v2.2c0,0.2,0,0.4,0.1,0.6
	C121,46.6,121.1,46.7,121.2,46.8z M120.2,50.6c-0.1-0.1-0.2-0.2-0.4-0.2c-0.1-0.1-0.3-0.1-0.5-0.1h-1v3.5h0.5v-1.4h0.7
	c0.1,0,0.3,0,0.4-0.1c0.1-0.1,0.2-0.1,0.3-0.2c0.1-0.1,0.2-0.2,0.2-0.3c0.1-0.1,0.1-0.3,0.1-0.4c0-0.2,0-0.3-0.1-0.4
	C120.4,50.8,120.3,50.7,120.2,50.6z M119.8,51.8c-0.1,0.1-0.3,0.2-0.5,0.2h-0.5v-1.2h0.5c0.2,0,0.4,0.1,0.5,0.2
	c0.1,0.1,0.2,0.2,0.2,0.4C120,51.5,119.9,51.7,119.8,51.8z M123.9,50.7c-0.2-0.2-0.3-0.3-0.6-0.4c-0.2-0.1-0.5-0.1-0.7-0.1
	c-0.2,0-0.5,0-0.7,0.1c-0.2,0.1-0.4,0.2-0.6,0.4c-0.2,0.2-0.3,0.3-0.4,0.6c-0.1,0.2-0.1,0.5-0.1,0.7c0,0.3,0,0.5,0.1,0.7
	c0.1,0.2,0.2,0.4,0.4,0.6c0.2,0.2,0.3,0.3,0.6,0.4c0.2,0.1,0.4,0.1,0.7,0.1c0.2,0,0.5,0,0.7-0.1c0.2-0.1,0.4-0.2,0.6-0.4
	c0.2-0.2,0.3-0.4,0.4-0.6c0.1-0.2,0.1-0.5,0.1-0.7c0-0.3,0-0.5-0.1-0.7C124.2,51.1,124.1,50.9,123.9,50.7z M123.8,52.6
	c-0.1,0.2-0.2,0.3-0.3,0.4c-0.1,0.1-0.3,0.2-0.4,0.3c-0.2,0.1-0.3,0.1-0.5,0.1s-0.3,0-0.5-0.1s-0.3-0.2-0.4-0.3
	c-0.1-0.1-0.2-0.3-0.3-0.4c-0.1-0.2-0.1-0.3-0.1-0.5c0-0.2,0-0.4,0.1-0.5c0.1-0.2,0.1-0.3,0.3-0.4c0.1-0.1,0.2-0.2,0.4-0.3
	c0.2-0.1,0.3-0.1,0.5-0.1c0.2,0,0.4,0,0.5,0.1c0.2,0.1,0.3,0.2,0.4,0.3c0.1,0.1,0.2,0.3,0.3,0.4c0.1,0.2,0.1,0.3,0.1,0.5
	C123.9,52.2,123.9,52.4,123.8,52.6z M126.5,52.2c0.1-0.1,0.2-0.1,0.3-0.2c0.1-0.1,0.2-0.2,0.2-0.3c0.1-0.1,0.1-0.3,0.1-0.4
	c0-0.1,0-0.3-0.1-0.4c-0.1-0.1-0.1-0.2-0.2-0.3c-0.1-0.1-0.2-0.2-0.3-0.2c-0.1-0.1-0.3-0.1-0.4-0.1H125v3.5h0.5v-1.6l1.4,1.6h0.6
	l-1.3-1.5C126.3,52.3,126.4,52.3,126.5,52.2z M125.4,51.9v-1.2h0.6c0.1,0,0.2,0,0.3,0.1c0.1,0,0.2,0.1,0.2,0.1
	c0.1,0.1,0.1,0.1,0.1,0.2c0,0.1,0,0.1,0,0.2c0,0.2-0.1,0.3-0.2,0.5c-0.1,0.1-0.3,0.2-0.5,0.2H125.4z M104.9,50.7
	c-0.2-0.2-0.3-0.3-0.6-0.4c-0.2-0.1-0.5-0.1-0.7-0.1c-0.2,0-0.5,0-0.7,0.1c-0.2,0.1-0.4,0.2-0.6,0.4c-0.2,0.2-0.3,0.3-0.4,0.6
	c-0.1,0.2-0.1,0.5-0.1,0.7c0,0.3,0,0.5,0.1,0.7c0.1,0.2,0.2,0.4,0.4,0.6c0.2,0.2,0.3,0.3,0.6,0.4c0.2,0.1,0.4,0.1,0.7,0.1
	c0.2,0,0.5,0,0.7-0.1c0.2-0.1,0.4-0.2,0.6-0.4c0.2-0.2,0.3-0.4,0.4-0.6c0.1-0.2,0.1-0.5,0.1-0.7c0-0.3,0-0.5-0.1-0.7
	C105.2,51.1,105,50.9,104.9,50.7z M104.8,52.6c-0.1,0.2-0.2,0.3-0.3,0.4c-0.1,0.1-0.3,0.2-0.4,0.3c-0.2,0.1-0.3,0.1-0.5,0.1
	s-0.3,0-0.5-0.1s-0.3-0.2-0.4-0.3c-0.1-0.1-0.2-0.3-0.3-0.4c-0.1-0.2-0.1-0.3-0.1-0.5c0-0.2,0-0.4,0.1-0.5c0.1-0.2,0.1-0.3,0.3-0.4
	c0.1-0.1,0.2-0.2,0.4-0.3c0.2-0.1,0.3-0.1,0.5-0.1c0.2,0,0.4,0,0.5,0.1c0.2,0.1,0.3,0.2,0.4,0.3c0.1,0.1,0.2,0.3,0.3,0.4
	c0.1,0.2,0.1,0.3,0.1,0.5C104.9,52.2,104.9,52.4,104.8,52.6z M126.7,47.2l-1.3-1.5c0.1,0,0.3,0,0.4-0.1c0.1-0.1,0.2-0.1,0.3-0.2
	c0.1-0.1,0.2-0.2,0.2-0.3c0.1-0.1,0.1-0.3,0.1-0.4c0-0.1,0-0.3-0.1-0.4c0-0.1-0.1-0.2-0.2-0.3c-0.1-0.1-0.2-0.2-0.3-0.2
	c-0.1-0.1-0.3-0.1-0.4-0.1h-1.1v3.5h0.5v-1.6l1.4,1.6H126.7z M124.7,45.3v-1.2h0.6c0.1,0,0.2,0,0.3,0.1c0.1,0,0.2,0.1,0.2,0.1
	c0.1,0.1,0.1,0.1,0.1,0.2c0,0.1,0,0.1,0,0.2c0,0.2-0.1,0.3-0.2,0.5c-0.1,0.1-0.3,0.2-0.5,0.2H124.7z M107,47.2l-1.2-1.9l1.1-1.6
	h-0.5l-0.7,1c0,0-0.1,0.1-0.1,0.2c0-0.1-0.1-0.1-0.1-0.2l-0.7-1h-0.6l1.1,1.6l-1.2,1.8h0.5l0.8-1.2c0,0,0-0.1,0.1-0.1
	c0,0,0-0.1,0.1-0.1c0,0,0,0,0,0c0,0,0,0,0,0c0,0,0,0.1,0.1,0.1c0,0,0,0.1,0.1,0.1l0.8,1.2H107z M108.2,52.7c0,0,0,0.1,0,0.1
	C108.2,52.8,108.1,52.8,108.2,52.7l-1.8-2.5h-0.4v3.5h0.5v-2.5c0,0,0-0.1,0-0.1c0,0,0.1,0.1,0.1,0.1l1.8,2.5h0.4v-3.5h-0.5V52.7z
	 M109.2,50.7h0.7v3h0.5v-3h0.7v-0.5h-1.9V50.7z M115.9,52l-1.3-1.7h-0.4v3.5h0.5v-2.5c0,0,0-0.1,0-0.1c0,0,0,0.1,0,0.1l1.1,1.4h0.2
	l1.1-1.5c0,0,0,0,0-0.1c0,0.1,0,0.1,0,0.1v2.6h0.5v-3.5h-0.4L115.9,52z M112.1,52.3h1.4v-0.5h-1.4v-1.1h1.5v-0.5h-1.9v3.5h2v-0.5
	h-1.5V52.3z"/>
</svg>
