<?xml version="1.0" encoding="UTF-8"?>
<svg id="Pattern" data-name="Pattern" xmlns="http://www.w3.org/2000/svg" viewBox="0 0 350.74 357.72">
  <polygon points="0 19.24 0 20.24 136.5 20.24 0 310.21 0 312.55 137.74 19.95 138.07 19.24 0 19.24" fill="#fdf8cb" opacity=".14"/>
  <polygon points="0 24.05 0 25.05 128.92 25.05 0 298.91 0 301.26 130.16 24.76 130.49 24.05 0 24.05" fill="#fdf8cb" opacity=".16"/>
  <polygon points="0 28.86 0 29.86 121.34 29.86 0 287.62 0 289.97 122.58 29.57 122.91 28.86 0 28.86" fill="#fdf8cb" opacity=".18"/>
  <polygon points="0 33.67 0 34.67 113.76 34.67 0 276.33 0 278.67 115 34.38 115.33 33.67 0 33.67" fill="#fdf8cb" opacity=".2"/>
  <polygon points="0 38.48 0 39.48 106.18 39.48 0 265.04 0 267.38 107.42 39.19 107.75 38.48 0 38.48" fill="#fdf8cb" opacity=".22"/>
  <polygon points="0 81.76 0 82.76 37.96 82.76 0 163.4 0 165.75 39.54 81.76 0 81.76" fill="#fdf8cb" opacity=".41"/>
  <polygon points="0 91.38 0 92.38 22.8 92.38 0 140.82 0 143.17 24.38 91.38 0 91.38" fill="#fdf8cb" opacity=".46"/>
  <polygon points="0 86.57 0 87.57 30.38 87.57 0 152.11 0 154.46 31.96 86.57 0 86.57" fill="#fdf8cb" opacity=".44"/>
  <polygon points="0 96.19 0 97.19 15.22 97.19 0 129.52 0 129.52 0 131.87 16.8 96.19 0 96.19" fill="#fdf8cb" opacity=".48"/>
  <polygon points="0 101 0 102 7.64 102 0 118.22 0 118.2 0 120.55 0 120.57 9.22 101 0 101" fill="#fdf8cb" opacity=".5"/>
  <polygon points="0 14.43 0 15.43 144.08 15.43 0 321.5 0 323.84 145.32 15.14 145.65 14.43 0 14.43" fill="#fdf8cb" opacity=".11"/>
  <polygon points="0 9.62 0 10.62 151.66 10.62 0 332.79 0 335.14 152.9 10.33 153.23 9.62 0 9.62" fill="#fdf8cb" opacity=".09"/>
  <polygon points="0 4.81 0 5.81 159.24 5.81 0 344.08 0 346.43 160.48 5.52 160.81 4.81 0 4.81" fill="#fdf8cb" opacity=".07"/>
  <polygon points="0 0 0 1 166.82 1 0 355.38 0 357.72 168.06 .71 168.39 0 0 0" fill="#fdf8cb" opacity=".05"/>
  <polygon points="0 43.29 0 44.29 98.6 44.29 0 253.74 0 256.09 99.84 44 100.17 43.29 0 43.29" fill="#fdf8cb" opacity=".24"/>
  <polygon points="0 48.1 0 49.1 91.02 49.1 0 242.45 0 244.8 92.26 48.81 92.59 48.1 0 48.1" fill="#fdf8cb" opacity=".26"/>
  <polygon points="0 52.9 0 53.9 83.44 53.9 0 231.16 0 233.51 84.68 53.62 85.01 52.9 0 52.9" fill="#fdf8cb" opacity=".29"/>
  <polygon points="0 57.71 0 58.71 75.86 58.71 0 219.87 0 222.21 77.1 58.43 77.44 57.71 0 57.71" fill="#fdf8cb" opacity=".31"/>
  <polygon points="0 62.52 0 63.52 68.28 63.52 0 208.57 0 210.92 69.52 63.24 69.86 62.52 0 62.52" fill="#fdf8cb" opacity=".33"/>
  <polygon points="0 67.33 0 68.33 60.7 68.33 0 197.28 0 199.63 61.94 68.05 62.28 67.33 0 67.33" fill="#fdf8cb" opacity=".35"/>
  <polygon points="0 72.14 0 73.14 53.12 73.14 0 185.99 0 188.34 54.36 72.86 54.7 72.14 0 72.14" fill="#fdf8cb" opacity=".37"/>
  <polygon points="0 76.95 0 77.95 45.54 77.95 0 174.7 0 177.04 47.12 76.95 0 76.95" fill="#fdf8cb" opacity=".39"/>
  <path d="m313.11,337.77L175.37,45.17,37.63,337.77l-.34.71h276.15l-.34-.71Zm-274.23-.29L175.37,47.52l136.5,289.97H38.87Z" fill="#fdf8cb" opacity=".14"/>
  <path d="m305.53,332.96L175.37,56.46,45.21,332.96l-.34.71h260.99l-.34-.71Zm-259.07-.29L175.37,58.81l128.92,273.87H46.45Z" fill="#fdf8cb" opacity=".16"/>
  <path d="m297.95,328.15L175.37,67.76,52.79,328.15l-.34.71h245.83l-.34-.71Zm-243.92-.29L175.37,70.1l121.34,257.76H54.03Z" fill="#fdf8cb" opacity=".18"/>
  <path d="m290.37,323.34l-115-244.29-115,244.29-.34.71h230.67l-.34-.71Zm-228.76-.29l113.76-241.66,113.76,241.66H61.61Z" fill="#fdf8cb" opacity=".2"/>
  <path d="m282.79,318.53l-107.42-228.19-107.42,228.19-.34.71h215.51l-.34-.71Zm-213.6-.29l106.18-225.56,106.18,225.56H69.19Z" fill="#fdf8cb" opacity=".22"/>
  <path d="m175.37,191.97l-39.54,83.99h79.07l-39.54-83.99Zm-37.96,82.99l37.96-80.64,37.96,80.64h-75.92Z" fill="#fdf8cb" opacity=".41"/>
  <path d="m175.37,214.56l-24.38,51.78h48.75l-24.38-51.78Zm-22.8,50.78l22.8-48.44,22.8,48.44h-45.6Z" fill="#fdf8cb" opacity=".46"/>
  <path d="m175.37,203.26l-31.96,67.89h63.91l-31.96-67.89Zm-30.38,66.89l30.38-64.54,30.38,64.54h-60.76Z" fill="#fdf8cb" opacity=".44"/>
  <path d="m175.37,225.85l-16.8,35.68h33.6l-16.8-35.68Zm-15.22,34.68l15.22-32.33h0s0,0,0,0l15.22,32.33h-30.44Z" fill="#fdf8cb" opacity=".48"/>
  <path d="m175.38,237.16h0s0,0,0,0l-9.21,19.57h18.44l-9.21-19.57Zm-7.65,18.57l7.63-16.22v.02s.02-.02.02-.02l7.63,16.22h-15.28Z" fill="#fdf8cb" opacity=".5"/>
  <path d="m320.69,342.58L175.37,33.88,30.05,342.58l-.34.71h291.31l-.34-.71Zm-289.39-.29L175.37,36.23l144.08,306.07H31.29Z" fill="#fdf8cb" opacity=".11"/>
  <path d="m328.27,347.39L175.37,22.59,22.47,347.39l-.34.71h306.46l-.34-.71Zm-304.55-.29L175.37,24.93l151.66,322.17H23.71Z" fill="#fdf8cb" opacity=".09"/>
  <path d="m335.85,352.2L175.37,11.29,14.89,352.2l-.34.71h321.62l-.34-.71Zm-319.71-.29L175.37,13.64l159.24,338.27H16.13Z" fill="#fdf8cb" opacity=".07"/>
  <path d="m343.43,357.01L175.37,0,7.31,357.01l-.34.71h336.78l-.34-.71Zm-334.87-.29L175.37,2.35l166.82,354.38H8.55Z" fill="#fdf8cb" opacity=".05"/>
  <path d="m275.21,313.72l-99.84-212.09-99.84,212.09-.34.71h200.35l-.34-.71Zm-198.44-.29l98.6-209.46,98.6,209.46H76.77Z" fill="#fdf8cb" opacity=".24"/>
  <path d="m267.63,308.91l-92.26-195.99-92.26,195.99-.34.71h185.19l-.34-.71Zm-183.28-.29l91.02-193.35,91.02,193.35H84.35Z" fill="#fdf8cb" opacity=".26"/>
  <path d="m260.05,304.11l-84.68-179.89-84.68,179.89-.34.71h170.03l-.34-.71Zm-168.12-.29l83.44-177.25,83.44,177.25H91.93Z" fill="#fdf8cb" opacity=".29"/>
  <path d="m252.47,299.3l-77.1-163.79-77.1,163.79-.34.71h154.87l-.34-.71Zm-152.96-.29l75.86-161.15,75.86,161.15H99.51Z" fill="#fdf8cb" opacity=".31"/>
  <path d="m244.89,294.49l-69.52-147.68-69.52,147.68-.34.71h139.71l-.34-.71Zm-137.8-.29l68.28-145.05,68.28,145.05H107.09Z" fill="#fdf8cb" opacity=".33"/>
  <path d="m237.31,289.68l-61.94-131.58-61.94,131.58-.34.71h124.55l-.34-.71Zm-122.64-.29l60.7-128.95,60.7,128.95h-121.4Z" fill="#fdf8cb" opacity=".35"/>
  <path d="m229.73,284.87l-54.36-115.48-54.36,115.48-.34.71h109.39l-.34-.71Zm-107.48-.29l53.12-112.85,53.12,112.85h-106.24Z" fill="#fdf8cb" opacity=".37"/>
  <path d="m175.37,180.68l-47.12,100.09h94.23l-47.12-100.09Zm-45.54,99.09l45.54-96.74,45.54,96.74h-91.08Z" fill="#fdf8cb" opacity=".39"/>
  <polygon points="350.74 19.24 350.74 20.24 214.24 20.24 350.74 310.21 350.74 312.55 213 19.95 212.67 19.24 350.74 19.24" fill="#fdf8cb" opacity=".14"/>
  <polygon points="350.74 24.05 350.74 25.05 221.82 25.05 350.74 298.91 350.74 301.26 220.58 24.76 220.25 24.05 350.74 24.05" fill="#fdf8cb" opacity=".16"/>
  <polygon points="350.74 28.86 350.74 29.86 229.4 29.86 350.74 287.62 350.74 289.97 228.16 29.57 227.83 28.86 350.74 28.86" fill="#fdf8cb" opacity=".18"/>
  <polygon points="350.74 33.67 350.74 34.67 236.98 34.67 350.74 276.33 350.74 278.67 235.74 34.38 235.41 33.67 350.74 33.67" fill="#fdf8cb" opacity=".2"/>
  <polygon points="350.74 38.48 350.74 39.48 244.56 39.48 350.74 265.04 350.74 267.38 243.32 39.19 242.99 38.48 350.74 38.48" fill="#fdf8cb" opacity=".22"/>
  <polygon points="350.74 81.76 350.74 82.76 312.78 82.76 350.74 163.4 350.74 165.75 311.21 81.76 350.74 81.76" fill="#fdf8cb" opacity=".41"/>
  <polygon points="350.74 91.38 350.74 92.38 327.94 92.38 350.74 140.82 350.74 143.17 326.36 91.38 350.74 91.38" fill="#fdf8cb" opacity=".46"/>
  <polygon points="350.74 86.57 350.74 87.57 320.36 87.57 350.74 152.11 350.74 154.46 318.78 86.57 350.74 86.57" fill="#fdf8cb" opacity=".44"/>
  <polygon points="350.74 96.19 350.74 97.19 335.52 97.19 350.74 129.52 350.74 129.52 350.74 131.87 333.94 96.19 350.74 96.19" fill="#fdf8cb" opacity=".48"/>
  <polygon points="350.74 101 350.74 102 343.1 102 350.73 118.22 350.74 118.2 350.74 120.55 350.74 120.57 341.52 101 350.74 101" fill="#fdf8cb" opacity=".5"/>
  <polygon points="350.74 14.43 350.74 15.43 206.66 15.43 350.74 321.5 350.74 323.84 205.42 15.14 205.09 14.43 350.74 14.43" fill="#fdf8cb" opacity=".11"/>
  <polygon points="350.74 9.62 350.74 10.62 199.09 10.62 350.74 332.79 350.74 335.14 197.85 10.33 197.51 9.62 350.74 9.62" fill="#fdf8cb" opacity=".09"/>
  <polygon points="350.74 4.81 350.74 5.81 191.51 5.81 350.74 344.08 350.74 346.43 190.27 5.52 189.93 4.81 350.74 4.81" fill="#fdf8cb" opacity=".07"/>
  <polygon points="350.74 0 350.74 1 183.93 1 350.74 355.38 350.74 357.72 182.69 .71 182.35 0 350.74 0" fill="#fdf8cb" opacity=".05"/>
  <polygon points="350.74 43.29 350.74 44.29 252.14 44.29 350.74 253.74 350.74 256.09 250.9 44 250.57 43.29 350.74 43.29" fill="#fdf8cb" opacity=".24"/>
  <polygon points="350.74 48.1 350.74 49.1 259.72 49.1 350.74 242.45 350.74 244.8 258.48 48.81 258.15 48.1 350.74 48.1" fill="#fdf8cb" opacity=".26"/>
  <polygon points="350.74 52.9 350.74 53.9 267.3 53.9 350.74 231.16 350.74 233.51 266.06 53.62 265.73 52.9 350.74 52.9" fill="#fdf8cb" opacity=".29"/>
  <polygon points="350.74 57.71 350.74 58.71 274.88 58.71 350.74 219.87 350.74 222.21 273.64 58.43 273.31 57.71 350.74 57.71" fill="#fdf8cb" opacity=".31"/>
  <polygon points="350.74 62.52 350.74 63.52 282.46 63.52 350.74 208.57 350.74 210.92 281.22 63.24 280.89 62.52 350.74 62.52" fill="#fdf8cb" opacity=".33"/>
  <polygon points="350.74 67.33 350.74 68.33 290.04 68.33 350.74 197.28 350.74 199.63 288.8 68.05 288.47 67.33 350.74 67.33" fill="#fdf8cb" opacity=".35"/>
  <polygon points="350.74 72.14 350.74 73.14 297.62 73.14 350.74 185.99 350.74 188.34 296.38 72.86 296.05 72.14 350.74 72.14" fill="#fdf8cb" opacity=".37"/>
  <polygon points="350.74 76.95 350.74 77.95 305.2 77.95 350.74 174.7 350.74 177.04 303.63 76.95 350.74 76.95" fill="#fdf8cb" opacity=".39"/>
</svg>